<?xml version="1.0" encoding="UTF-8" standalone="no"?>
<!-- Created with Inkscape (http://www.inkscape.org/) -->

<svg
   width="210mm"
   height="297mm"
   viewBox="0 0 210 297"
   version="1.1"
   id="svg5"
   inkscape:version="1.1 (c68e22c387, 2021-05-23)"
   sodipodi:docname="unc.svg"
   xmlns:inkscape="http://www.inkscape.org/namespaces/inkscape"
   xmlns:sodipodi="http://sodipodi.sourceforge.net/DTD/sodipodi-0.dtd"
   xmlns="http://www.w3.org/2000/svg"
   xmlns:svg="http://www.w3.org/2000/svg">
  <sodipodi:namedview
     id="namedview7"
     pagecolor="#ffffff"
     bordercolor="#666666"
     borderopacity="1.0"
     inkscape:pageshadow="2"
     inkscape:pageopacity="0.0"
     inkscape:pagecheckerboard="0"
     inkscape:document-units="mm"
     showgrid="false"
     inkscape:zoom="0.58974467"
     inkscape:cx="396.78188"
     inkscape:cy="309.45596"
     inkscape:window-width="1600"
     inkscape:window-height="847"
     inkscape:window-x="-8"
     inkscape:window-y="-8"
     inkscape:window-maximized="1"
     inkscape:current-layer="layer1" />
  <defs
     id="defs2" />
  <g
     inkscape:label="Capa 1"
     inkscape:groupmode="layer"
     id="layer1">
    <path
       style="fill:#000000;stroke-width:0.0874297"
       d="M 37.148336,91.306897 V 68.837429 h 44.93894 44.938944 V 91.306897 113.77637 H 82.087276 37.148336 Z m 44.56754,-0.0219 0.022,-21.74817 h -21.94506 -21.94507 v 21.7702 21.770213 l 21.92304,-0.022 21.92303,-0.022 z m -22.84122,15.671673 c -1.57222,-0.23646 -2.81845,-0.96196 -3.90231,-2.27172 -0.25805,-0.31184 -0.56754,-0.65451 -0.68776,-0.76149 -0.41805,-0.37204 -1.24292,-0.74487 -2.20839,-0.99818 -0.53426,-0.14016 -1.14309,-0.35548 -1.35297,-0.47848 -0.62092,-0.36388 -1.28881,-1.09938 -1.63573,-1.80133 -0.59189,-1.197623 -0.60833,-2.286733 -0.0554,-3.669803 0.14107,-0.35288 0.29476,-0.91699 0.34153,-1.2536 l 0.085,-0.61201 -0.60337,-0.61406 -0.60337,-0.61406 0.67951,-0.67553 0.67952,-0.67553 h 0.66981 0.66982 l 0.42719,-0.41609 0.42718,-0.41609 -0.26586,-0.17423 c -0.36626,-0.24004 -0.50391,-0.53774 -0.45894,-0.99261 0.0498,-0.50369 0.29275,-0.81318 0.76431,-0.97359 0.21203,-0.0721 0.41442,-0.17049 0.44975,-0.21858 0.13847,-0.18848 0.0536,-1.00629 -0.19968,-1.92346 -0.34211,-1.23898 -0.42102,-2.32777 -0.22422,-3.09352 0.38855,-1.51184 1.65646,-2.45431 3.3057,-2.45723 l 0.58544,-0.001 -0.96385,-1.63707 -0.96385,-1.63707 0.13657,-0.28639 c 0.1199,-0.25143 0.17828,-0.28638 0.47834,-0.28638 0.2274,0 0.35911,0.0451 0.39356,0.13491 0.0389,0.1014 0.0918,0.11349 0.21293,0.0487 0.11913,-0.0638 0.23348,-0.0423 0.43845,0.0824 0.22563,0.13722 0.27728,0.22506 0.27728,0.47157 0,0.19735 -0.0533,0.33304 -0.153,0.38928 -0.10979,0.0619 -0.12634,0.11329 -0.0586,0.18179 0.0681,0.0688 0.22801,0.015 0.57341,-0.19298 0.45824,-0.27594 0.47597,-0.30017 0.40894,-0.55888 -0.0571,-0.22022 -0.10687,-0.26339 -0.26823,-0.23255 -0.31121,0.0595 -0.62323,-0.32329 -0.54688,-0.67091 0.0331,-0.15049 0.13524,-0.32055 0.22709,-0.37791 0.0919,-0.0574 0.16824,-0.18335 0.16976,-0.27998 0.002,-0.0966 0.0988,-0.28485 0.21623,-0.41827 0.20755,-0.23585 0.22206,-0.23899 0.52305,-0.11323 0.17027,0.0711 0.3329,0.19014 0.36142,0.26444 0.0285,0.0743 0.13615,0.13597 0.2392,0.13704 0.10305,0.001 0.28131,0.0742 0.39613,0.16247 0.17965,0.13813 0.20019,0.2063 0.14722,0.48861 -0.0411,0.21888 -0.11783,0.34281 -0.23062,0.37231 -0.16446,0.043 -0.21541,0.23851 -0.12414,0.47635 0.036,0.0939 0.17453,0.10057 0.69944,0.0336 l 0.65449,-0.0836 v -0.32659 c 0,-0.28674 -0.0279,-0.32997 -0.22833,-0.35426 -0.1544,-0.0187 -0.28698,-0.12919 -0.40944,-0.34117 l -0.1811,-0.31351 0.19799,-0.32036 c 0.13966,-0.22597 0.2603,-0.32036 0.40944,-0.32036 0.16267,0 0.21144,-0.0466 0.21144,-0.20213 0,-0.20096 0.40828,-0.58474 0.62208,-0.58474 0.0575,0 0.23954,0.10295 0.4045,0.22877 0.208,0.15865 0.28674,0.27924 0.25687,0.39344 -0.034,0.13019 0.006,0.16544 0.18919,0.16836 0.16806,0.003 0.28649,0.0887 0.42849,0.31136 l 0.19625,0.30766 -0.19625,0.34369 c -0.14672,0.25696 -0.25198,0.34386 -0.41713,0.34437 -0.20488,6.2e-4 -0.21847,0.026 -0.18753,0.35039 0.0311,0.32626 0.0518,0.34986 0.30831,0.3518 0.15123,0.001 0.42485,0.0369 0.60804,0.0794 0.30731,0.0713 0.33949,0.0605 0.41592,-0.14056 0.0905,-0.23806 0.0444,-0.37807 -0.12458,-0.37807 -0.0596,0 -0.15941,-0.14102 -0.22174,-0.31337 -0.10432,-0.2885 -0.0976,-0.33013 0.0851,-0.52458 0.1151,-0.12252 0.29788,-0.21121 0.43527,-0.21121 0.15388,0 0.25116,-0.0547 0.2777,-0.15618 0.0225,-0.0859 0.1823,-0.19959 0.35521,-0.25266 0.29494,-0.0905 0.32758,-0.0805 0.52808,0.16148 0.12899,0.1557 0.19613,0.32518 0.16936,0.42752 -0.0244,0.0933 -0.0102,0.17016 0.0314,0.1709 0.16492,0.003 0.30129,0.15518 0.37775,0.42177 0.0702,0.24491 0.0511,0.30665 -0.15371,0.49658 -0.12865,0.11929 -0.31825,0.2169 -0.42133,0.2169 -0.16376,0 -0.28863,0.19139 -0.29404,0.45066 -0.002,0.0905 0.97219,0.61599 1.03163,0.55654 0.0294,-0.0294 0.006,-0.12979 -0.0525,-0.22312 -0.0583,-0.0933 -0.10573,-0.2981 -0.10542,-0.45503 4.3e-4,-0.22761 0.0556,-0.31669 0.27281,-0.44031 0.19268,-0.10968 0.30413,-0.12853 0.38128,-0.0645 0.0774,0.0642 0.14089,0.0521 0.21876,-0.0417 0.0619,-0.0746 0.25132,-0.13222 0.43471,-0.13222 0.26341,0 0.34421,0.0422 0.42645,0.22269 0.0558,0.12248 0.10146,0.26558 0.10146,0.31801 0,0.11803 -1.73932,3.1153 -1.84611,3.1813 -0.19009,0.11749 -0.0396,0.16627 0.42406,0.13748 1.81345,-0.1126 3.26254,1.07924 3.52609,2.90013 0.10095,0.69749 0.0467,1.13932 -0.32784,2.6699 -0.34474,1.4088 -0.35018,2.0238 -0.0179,2.0238 0.22107,0 0.60421,0.19693 0.79054,0.40634 0.24374,0.27392 0.32917,0.74753 0.20172,1.11826 -0.0976,0.28407 -0.20376,0.40529 -0.58495,0.66829 -0.0405,0.028 0.10995,0.23452 0.33444,0.45901 l 0.40814,0.40814 h 0.71198 0.71198 l 0.65127,0.65565 0.65127,0.65564 -0.60101,0.60566 -0.60101,0.60565 0.0554,0.52976 c 0.0512,0.49006 0.13914,0.7907 0.5392,1.84372 0.20235,0.5326 0.26948,1.69288 0.1321,2.28311 -0.16673,0.716313 -0.59573,1.462373 -1.18178,2.055223 -0.65041,0.65795 -1.14676,0.91639 -2.31256,1.20413 -1.08379,0.26749 -1.94301,0.74161 -2.42785,1.33968 -0.70958,0.8753 -1.1419,1.29295 -1.75449,1.69495 -0.75688,0.49668 -1.39937,0.75329 -2.2913,0.91511 -0.71687,0.13007 -1.04193,0.13722 -1.70488,0.0375 z m 1.8973,-0.53232 c 0.615,-0.12651 1.76539,-0.68739 2.25947,-1.10163 0.21851,-0.1832 0.68028,-0.65462 1.02615,-1.04761 0.34587,-0.39299 0.73757,-0.79127 0.87044,-0.88508 0.51164,-0.36122 1.32603,-0.70359 2.18465,-0.91843 1.06875,-0.26742 1.67588,-0.63361 2.24968,-1.35691 0.58435,-0.73661 0.79173,-1.363333 0.78633,-2.376293 -0.004,-0.70443 -0.0404,-0.9135 -0.24133,-1.37652 -0.37525,-0.86476 -0.50019,-1.54088 -0.55748,-3.01683 l -0.0535,-1.37702 -0.40223,4e-5 -0.40224,3e-5 -0.006,1.02727 c -0.004,0.64686 -0.0566,1.21086 -0.14289,1.52307 -0.15535,0.5617 -0.0845,1.0347 0.31342,2.09183 0.30921,0.82149 0.35859,1.28696 0.19591,1.84655 -0.29822,1.025853 -0.97576,1.573193 -2.36391,1.909643 -1.52571,0.36979 -2.12646,0.78056 -3.9092,2.67293 -1.04151,1.10557 -2.66841,1.53389 -4.11092,1.0823 -0.83782,-0.26229 -1.40338,-0.63177 -1.9685,-1.28603 -1.29328,-1.49727 -2.15145,-2.07615 -3.62292,-2.44385 -1.05696,-0.26412 -1.27312,-0.36249 -1.75898,-0.80047 -0.73688,-0.664273 -0.96059,-1.705883 -0.58573,-2.727243 0.0971,-0.26447 0.25666,-0.77594 0.35465,-1.13659 0.16999,-0.62563 0.17181,-0.68581 0.0396,-1.31144 -0.2019,-0.95571 -0.24853,-1.56275 -0.15613,-2.03275 l 0.0816,-0.41529 h -0.45966 -0.45966 l -0.0379,1.50816 c -0.036,1.43272 -0.0521,1.54754 -0.32144,2.29504 -0.4637,1.28684 -0.5581,1.81636 -0.44906,2.51914 0.12101,0.779923 0.45578,1.458273 1.02205,2.071003 0.56998,0.61674 1.10447,0.90826 2.08419,1.1367 0.42566,0.0993 0.94073,0.25423 1.14458,0.34441 0.66682,0.29497 1.4154,0.86877 1.82093,1.39579 0.8134,1.05707 1.95039,1.84093 3.11008,2.14415 0.58005,0.15166 1.8289,0.1729 2.46559,0.0419 z m -1.7443,-0.13746 c -0.13051,-0.0527 -0.15096,-0.81639 -0.0219,-0.81639 0.0481,0 0.0874,0.16065 0.0874,0.357 0,0.43042 0.2036,0.43691 0.24597,0.008 0.0151,-0.15258 0.076,-0.27742 0.13545,-0.27742 0.0732,0 0.096,0.10566 0.0706,0.32786 -0.0469,0.41091 -0.19977,0.52935 -0.51759,0.40111 z m 0.73587,-3.3e-4 c -0.0321,-0.0321 -0.0583,-0.20455 -0.0583,-0.38327 0,-0.27489 0.0328,-0.33123 0.21293,-0.36566 0.28307,-0.0541 0.36546,0.0103 0.43742,0.3421 0.0489,0.2255 0.0273,0.29575 -0.11441,0.37158 -0.19887,0.10643 -0.39218,0.12069 -0.47765,0.0352 z m 0.37886,-0.20403 c 0,-0.0481 -0.0613,-0.0874 -0.1363,-0.0874 -0.075,0 -0.11199,0.0393 -0.0823,0.0874 0.0297,0.0481 0.091,0.0874 0.1363,0.0874 0.0453,0 0.0823,-0.0394 0.0823,-0.0874 z m -0.0237,-0.31511 c -0.029,-0.029 -0.10446,-0.0322 -0.16757,-0.007 -0.0697,0.0279 -0.049,0.0486 0.0528,0.0528 0.0922,0.004 0.1438,-0.0169 0.11475,-0.0459 z m -1.96831,0.32864 c -0.0617,-0.0392 -0.0945,-0.1271 -0.0729,-0.19538 0.0216,-0.0683 0.0617,-0.22701 0.0891,-0.35272 0.0412,-0.18951 0.0877,-0.22129 0.27225,-0.18601 0.29238,0.0559 0.41722,0.29338 0.30684,0.58371 -0.0871,0.22902 -0.36193,0.29846 -0.59529,0.1504 z m 0.40248,-0.34824 c 0.0186,-0.1261 -0.0182,-0.18987 -0.10929,-0.18987 -0.0893,0 -0.13723,0.0789 -0.13723,0.22586 0,0.27389 0.20533,0.24391 0.24652,-0.036 z m 1.94684,0.10327 c -0.0684,-0.24752 -0.0643,-0.34599 0.0163,-0.39722 0.15419,-0.098 0.50064,-0.0864 0.50064,0.0167 0,0.0481 -0.0787,0.0874 -0.17486,0.0874 -0.0962,0 -0.17486,0.0357 -0.17486,0.0793 0,0.0436 0.0787,0.0587 0.17486,0.0335 0.0978,-0.0256 0.17486,-0.003 0.17486,0.0519 0,0.0537 -0.059,0.0976 -0.13115,0.0976 -0.0721,0 -0.13114,0.0418 -0.13114,0.0929 0,0.0511 0.0769,0.0806 0.17088,0.0656 0.094,-0.015 0.18252,0.012 0.19672,0.0601 0.0142,0.0481 -0.0996,0.0996 -0.25279,0.11441 -0.25565,0.0247 -0.28611,-1.7e-4 -0.36949,-0.30213 z m -2.78003,-0.0309 c 0.0297,-0.11365 0.003,-0.17486 -0.0772,-0.17486 -0.0676,0 -0.12296,0.0394 -0.12296,0.0874 0,0.0481 -0.0571,0.0874 -0.12696,0.0874 -0.10868,0 -0.10649,-0.0552 0.0152,-0.38358 0.13639,-0.36799 0.15222,-0.38009 0.38925,-0.29746 0.2724,0.095 0.29291,0.17377 0.1511,0.58056 -0.10419,0.29888 -0.30318,0.38641 -0.2284,0.10048 z m 0.14953,-0.43715 c 0,-0.0481 -0.0613,-0.0874 -0.13631,-0.0874 -0.075,0 -0.11199,0.0393 -0.0823,0.0874 0.0297,0.0481 0.0911,0.0874 0.13631,0.0874 0.0452,0 0.0823,-0.0393 0.0823,-0.0874 z m 3.3588,0.30216 c -0.16596,-0.3972 -0.0885,-0.5312 0.19845,-0.3432 0.20967,0.13738 0.21642,0.13607 0.1632,-0.0316 -0.11433,-0.36022 0.0985,-0.25075 0.23652,0.12166 0.1488,0.40148 0.10479,0.46249 -0.21151,0.29321 -0.15684,-0.0839 -0.17068,-0.0738 -0.11951,0.0874 0.0994,0.31321 -0.12845,0.20448 -0.26715,-0.12749 z m 0.83783,-0.1792 c 0,-0.0676 0.059,-0.12296 0.13114,-0.12296 0.0721,0 0.13115,-0.0311 0.13115,-0.069 0,-0.038 -0.1082,-0.0675 -0.24043,-0.0656 -0.17875,0.003 -0.24044,-0.039 -0.24044,-0.16188 0,-0.18994 0.26334,-0.38965 0.36739,-0.27862 0.0384,0.041 0.0206,0.092 -0.0395,0.11348 -0.0601,0.0215 -0.10929,0.0793 -0.10929,0.12853 0,0.0492 0.064,0.0649 0.14222,0.0349 0.21093,-0.0809 0.39768,0.10617 0.29586,0.29642 -0.10677,0.1995 -0.43808,0.29381 -0.43808,0.1247 z m -5.32573,-0.0702 c -0.15091,-0.18185 -0.0863,-0.49037 0.13295,-0.63521 0.16215,-0.1071 0.20917,-0.10109 0.39344,0.0502 0.19831,0.16288 0.20225,0.18476 0.0752,0.41762 -0.15271,0.2799 -0.44151,0.36023 -0.6016,0.16734 z m 0.42474,-0.21843 c 0.12223,-0.22839 -0.0948,-0.42366 -0.25555,-0.22995 -0.11624,0.14006 -0.0647,0.39563 0.0798,0.39563 0.0479,0 0.127,-0.0746 0.17576,-0.16568 z m 5.34564,-0.28002 c -0.13013,-0.17601 -0.17038,-0.3007 -0.11496,-0.35612 0.0554,-0.0554 0.15039,0.0201 0.27123,0.21559 0.10227,0.16547 0.18595,0.32573 0.18595,0.35612 0,0.13338 -0.15763,0.0341 -0.34222,-0.21559 z m -6.33992,0.046 c -0.0756,-0.0756 -0.13739,-0.16517 -0.13739,-0.19912 0,-0.15086 0.2869,-0.45036 0.4314,-0.45036 0.18642,0 0.41134,0.23769 0.31224,0.32997 -0.0375,0.0349 -0.0857,0.0143 -0.10717,-0.0458 -0.0543,-0.15194 -0.24277,-0.13649 -0.38203,0.0313 -0.0987,0.11889 -0.0936,0.15752 0.033,0.25008 0.0823,0.0602 0.1497,0.13463 0.1497,0.16539 0,0.10167 -0.16015,0.0582 -0.29976,-0.0815 z m 6.76957,-0.0934 c 0,-0.0308 0.0688,-0.10876 0.153,-0.17332 0.13552,-0.10397 0.12197,-0.1116 -0.11856,-0.0668 -0.20702,0.0386 -0.28531,0.0148 -0.32937,-0.10006 -0.0318,-0.0828 -0.013,-0.20466 0.0418,-0.2707 0.11556,-0.13923 0.34053,-0.16079 0.34053,-0.0326 0,0.0481 -0.0394,0.0874 -0.0874,0.0874 -0.0481,0 -0.0874,0.0339 -0.0874,0.0753 0,0.0414 0.0979,0.0566 0.21748,0.0337 0.25667,-0.0491 0.38599,0.17142 0.21874,0.37294 -0.10741,0.12942 -0.34879,0.1807 -0.34879,0.0741 z m -10.51528,-2.575 c -0.0852,-0.0496 -0.13084,-0.12898 -0.1015,-0.17645 0.0338,-0.0547 0.0993,-0.0482 0.17881,0.0178 0.069,0.0573 0.14977,0.0798 0.17946,0.0502 0.0297,-0.0297 -0.0401,-0.13112 -0.15512,-0.2254 -0.19568,-0.16041 -0.19972,-0.18094 -0.0629,-0.32014 0.15152,-0.15413 0.42208,-0.11782 0.42208,0.0566 0,0.0547 -0.059,0.0769 -0.13115,0.0492 -0.0721,-0.0277 -0.13114,-0.0164 -0.13114,0.025 0,0.0414 0.059,0.098 0.13114,0.12566 0.17332,0.0665 0.16835,0.37255 -0.007,0.43989 -0.1654,0.0635 -0.13352,0.0677 -0.32255,-0.0424 z m -0.4866,-0.21829 c -0.0833,-0.0943 -0.14836,-0.10609 -0.22662,-0.0411 -0.21493,0.17838 -0.21117,-0.0192 0.007,-0.34832 0.2861,-0.43233 0.46799,-0.37626 0.46799,0.14427 0,0.40545 -0.0568,0.46158 -0.24801,0.24519 z m 15.29016,-0.15432 c -0.0746,-0.22615 -0.13915,-0.29508 -0.23994,-0.2564 -0.091,0.0349 -0.12453,0.0129 -0.0986,-0.0649 0.0453,-0.13578 0.49192,-0.30624 0.57769,-0.22046 0.0317,0.0317 0.008,0.0882 -0.0526,0.12565 -0.0836,0.0517 -0.0875,0.12767 -0.0161,0.31548 0.0579,0.15238 0.0629,0.27862 0.0128,0.32866 -0.05,0.05 -0.12045,-0.0376 -0.18332,-0.22807 z m -16.17564,-0.12208 c 0.002,-0.0361 0.0575,-0.16381 0.12392,-0.28389 0.0849,-0.15348 0.0938,-0.25085 0.0299,-0.32786 -0.11752,-0.14161 0.0192,-0.14506 0.31982,-0.008 0.2601,0.1185 0.29243,0.24825 0.0619,0.24825 -0.0884,0 -0.20564,0.0984 -0.26041,0.21858 -0.0914,0.20066 -0.28237,0.30685 -0.2751,0.153 z m 16.6912,-0.20345 c -0.13237,-0.18589 -0.16352,-0.29707 -0.10082,-0.35977 0.0627,-0.0627 0.13426,-0.007 0.23157,0.1816 0.15649,0.30263 0.36332,0.37523 0.27768,0.0975 -0.0297,-0.0962 -0.0782,-0.25355 -0.10782,-0.34973 -0.0879,-0.28494 0.0885,-0.19923 0.26516,0.12891 0.13385,0.24854 0.14347,0.32802 0.0529,0.43715 -0.17364,0.20923 -0.40998,0.15741 -0.61866,-0.13564 z m -17.21533,-0.14627 c 0.008,-0.14097 0.50505,-0.64302 0.55577,-0.56095 0.0296,0.0479 -0.0483,0.2085 -0.17307,0.35683 -0.21458,0.25501 -0.39054,0.34886 -0.3827,0.20412 z m 17.8894,-0.26917 c -0.0796,-0.0879 -0.14469,-0.22082 -0.14469,-0.2953 0,-0.17701 0.22783,-0.3633 0.35112,-0.2871 0.064,0.0395 0.0432,0.0992 -0.0617,0.17704 -0.14964,0.11103 -0.15007,0.1257 -0.008,0.26991 0.14292,0.14503 0.15898,0.14463 0.32786,-0.008 0.14006,-0.12675 0.17758,-0.13383 0.17758,-0.0335 0,0.32866 -0.40416,0.44015 -0.64217,0.17716 z m -18.32442,-0.17922 c -0.0536,-0.10011 -0.06,-0.1956 -0.0151,-0.22338 0.0432,-0.0267 0.10107,0.0103 0.12864,0.0821 0.0276,0.0718 0.0921,0.13065 0.14338,0.13065 0.065,0 0.0659,-0.0511 0.003,-0.16879 -0.0679,-0.12681 -0.0571,-0.202 0.0432,-0.30229 0.15144,-0.15144 0.35178,-0.10626 0.42974,0.0969 0.0722,0.18821 -0.008,0.24606 -0.16361,0.1173 -0.10873,-0.0902 -0.1261,-0.0683 -0.1114,0.14046 0.0137,0.19433 -0.0235,0.25321 -0.17338,0.27461 -0.12063,0.0172 -0.22522,-0.0371 -0.28438,-0.1476 z m 18.7247,-0.40714 c -0.28533,-0.20159 -0.14846,-0.3368 0.15779,-0.15589 0.3492,0.20627 0.44197,0.067 0.1244,-0.18677 -0.3221,-0.2574 -0.23852,-0.371763 0.13177,-0.18028 0.22126,0.11443 0.27036,0.1891 0.24855,0.37803 -0.0331,0.28693 -0.36021,0.35847 -0.66251,0.14491 z m -19.03888,-0.0447 c -0.0288,-0.0465 0.007,-0.10728 0.0789,-0.13496 0.19041,-0.0731 0.0756,-0.28723 -0.12572,-0.23458 -0.29034,0.0759 -0.18511,-0.11104 0.15333,-0.272433 0.18223,-0.0869 0.28171,-0.17952 0.22869,-0.21291 -0.0516,-0.0325 -0.11352,-0.13778 -0.13755,-0.23396 -0.0335,-0.13402 -0.046,-0.11871 -0.0538,0.0656 -0.0115,0.27291 -0.185,0.3344 -0.185,0.0656 0,-0.0962 -0.0393,-0.17486 -0.0874,-0.17486 -0.0481,0 -0.0874,0.10068 -0.0874,0.22373 0,0.12689 -0.0378,0.20035 -0.0874,0.1697 -0.0481,-0.0297 -0.0874,-0.16583 -0.0874,-0.30248 0,-0.21391 0.0456,-0.26008 0.32786,-0.33218 0.27507,-0.0702 0.29971,-0.0939 0.15301,-0.14694 -0.69209,-0.25017 -0.73213,-0.3426 -0.21546,-0.49739 0.36494,-0.10934 0.32707,-0.247 -0.0687,-0.24969 -0.1082,-6.9e-4 -0.19672,-0.0459 -0.19672,-0.10028 0,-0.0898 0.65339,-0.0637 0.74691,0.0298 0.0895,0.0895 -0.0863,0.40943 -0.25227,0.45893 l -0.18863,0.0563 0.18801,0.0769 c 0.13178,0.0539 0.20635,0.18547 0.24932,0.43983 0.0337,0.19959 0.11609,0.46788 0.18303,0.59619 0.0669,0.1283 0.12099,0.292303 0.1201,0.364433 -0.002,0.16106 -0.58094,0.46637 -0.65553,0.34568 z m 0.48336,-0.43311 c 0,-0.0481 -0.0393,-0.0874 -0.0874,-0.0874 -0.0481,0 -0.0874,0.0393 -0.0874,0.0874 0,0.0481 0.0393,0.0874 0.0874,0.0874 0.0481,0 0.0874,-0.0393 0.0874,-0.0874 z m 19.05971,-0.201653 c -0.35057,-0.11955 -0.37168,-0.26625 -0.0442,-0.3071 l 0.22354,-0.0279 -0.19102,-0.15467 c -0.10506,-0.0851 -0.16422,-0.19804 -0.13147,-0.25103 0.0769,-0.12436 0.71533,0.0845 0.70269,0.22983 -0.005,0.0553 -0.0147,0.15951 -0.0219,0.23164 -0.007,0.0721 -0.082,0.13425 -0.16612,0.13804 -0.0914,0.004 -0.109,0.0247 -0.0437,0.051 0.11733,0.0473 0.15247,0.207633 0.0437,0.199453 -0.0361,-0.003 -0.20327,-0.0519 -0.37158,-0.109293 z m 0.19671,-0.90542 c -0.20436,-0.0723 -0.37157,-0.17773 -0.37157,-0.23421 0,-0.0565 0.17048,-0.164 0.37886,-0.23893 l 0.37886,-0.13624 v 0.37736 c 0,0.20755 -0.003,0.37425 -0.007,0.37046 -0.004,-0.004 -0.1745,-0.0661 -0.37886,-0.13844 z m -0.37157,-0.6565 c 0,-0.0563 0.0688,-0.18053 0.153,-0.27602 0.14786,-0.16778 0.14622,-0.17191 -0.0487,-0.12305 -0.30298,0.076 -0.18737,-0.13089 0.11998,-0.21464 0.42134,-0.11481 0.53644,-0.0168 0.29154,0.24839 -0.20456,0.22146 -0.20507,0.22569 -0.0204,0.16902 0.10415,-0.032 0.21335,-0.0193 0.24267,0.0281 0.0293,0.0474 -0.0952,0.12751 -0.27679,0.17792 -0.41846,0.11621 -0.46124,0.11531 -0.46124,-0.01 z m -19.38757,-0.37767 c -0.3474,-0.15099 -0.36159,-0.2662 -0.0437,-0.35502 0.17965,-0.0502 0.20175,-0.0763 0.0874,-0.10332 -0.0841,-0.0199 -0.153,-0.0902 -0.153,-0.1563 0,-0.10074 0.053,-0.10181 0.32786,-0.007 0.37622,0.13025 0.42893,0.3253 0.10929,0.4044 l -0.21857,0.0541 0.19798,0.0654 c 0.1089,0.036 0.17542,0.10194 0.14784,0.14657 -0.0647,0.10476 -0.11282,0.0996 -0.45511,-0.0492 z m 19.01231,-0.72209 c -0.14907,-0.37122 -0.10921,-0.49928 0.0764,-0.24544 0.12091,0.16535 0.124,0.1648 0.124,-0.022 0,-0.10536 0.0393,-0.19157 0.0874,-0.19157 0.0481,0 0.0874,0.059 0.0874,0.13115 0,0.0721 0.0401,0.13114 0.0891,0.13114 0.0514,0 0.0659,-0.0925 0.0342,-0.21857 -0.0768,-0.30579 0.10155,-0.27681 0.20994,0.0341 0.061,0.17493 0.0591,0.28167 -0.006,0.34685 -0.0673,0.0673 -0.0525,0.11014 0.0516,0.1501 0.27024,0.1037 0.14845,0.21208 -0.23832,0.21208 -0.36213,0 -0.39161,-0.0187 -0.51575,-0.32786 z m 0.52644,0.10018 c -0.0291,-0.0291 -0.10446,-0.0322 -0.16758,-0.007 -0.0697,0.0279 -0.049,0.0486 0.0528,0.0528 0.0922,0.004 0.1438,-0.0169 0.11475,-0.0459 z m -19.20842,-0.13193 c -0.26495,-0.10574 -0.34354,-0.22286 -0.28914,-0.43089 0.0569,-0.21766 0.23204,-0.2686 0.5465,-0.15898 0.36589,0.12755 0.33631,0.27139 -0.0412,0.20056 -0.38652,-0.0725 -0.41947,0.10646 -0.0437,0.23744 0.14426,0.0503 0.26229,0.12693 0.26229,0.17032 0,0.0992 -0.15638,0.0926 -0.43468,-0.0185 z m 10.79512,7.378813 c 0.70189,-0.26956 1.13047,-0.58781 1.70683,-1.26743 1.22228,-1.44126 2.14387,-2.01051 4.07875,-2.51935 1.16373,-0.30605 1.7771,-0.978133 1.7771,-1.947223 0,-0.58604 -0.47438,-2.04227 -0.57531,-1.76606 -0.56468,1.54531 -1.33844,3.237483 -1.43386,3.135763 -0.0391,-0.0416 -0.16023,-0.292113 -0.26924,-0.556583 -0.10902,-0.26448 -0.22682,-0.51394 -0.26179,-0.55437 -0.035,-0.0404 -0.3634,0.009 -0.72984,0.10929 -0.36644,0.10054 -0.70905,0.18279 -0.76135,0.18279 -0.10815,0 -0.0978,-0.0179 1.20827,-2.09832 0.86398,-1.37616 1.33681,-2.31893 1.33681,-2.66543 0,-0.10562 -0.0437,-0.10515 -0.3032,0.003 -0.43587,0.18212 -0.83845,0.15663 -1.28621,-0.0814 l -0.39143,-0.20812 -0.10303,0.98843 c -0.31704,3.04149 -1.282,5.500833 -2.72845,6.953893 -1.77888,1.78699 -4.01549,1.48914 -5.6825,-0.75674 -0.71168,-0.95882 -1.46714,-2.790903 -1.79655,-4.356823 -0.0928,-0.44136 -0.38596,-2.57949 -0.38596,-2.81537 0,-0.006 -0.18371,0.0825 -0.40825,0.19618 -0.46796,0.23692 -0.86534,0.26138 -1.29944,0.08 -0.35409,-0.14795 -0.35585,-0.14117 -0.13231,0.50857 0.16922,0.49185 0.45046,0.97592 1.82262,3.13717 0.38926,0.6131 0.6606,1.11406 0.60299,1.11323 -0.0576,-6.6e-4 -0.39982,-0.0788 -0.76047,-0.17336 -0.81149,-0.21269 -0.76323,-0.21395 -0.8347,0.0218 -0.1164,0.38412 -0.41177,1.027303 -0.47176,1.027303 -0.0766,0 -0.68904,-1.345793 -1.12792,-2.478663 l -0.33364,-0.8612 -0.27715,0.76082 c -0.39689,1.08947 -0.34888,1.71549 0.18081,2.358103 0.33646,0.40818 0.7294,0.60132 1.68529,0.82834 1.32953,0.31576 2.4448,0.97672 3.304,1.95809 1.09443,1.25004 1.55799,1.59512 2.50885,1.86761 0.5217,0.14951 1.59073,0.0875 2.14204,-0.12421 z m 0.003,-1.89277 c 1.49447,-0.81942 2.6964,-2.910043 3.2823,-5.709163 0.18115,-0.86543 0.33874,-2.18174 0.34118,-2.84962 l 0.002,-0.41603 -4.87422,0.0226 -4.87421,0.0226 0.0276,0.74315 c 0.0856,2.30488 0.80025,4.83317 1.80523,6.386723 0.98417,1.52136 1.91745,2.12469 3.19774,2.0672 0.51568,-0.0232 0.75345,-0.0813 1.09287,-0.26745 z m -2.53881,-0.81147 c -0.12836,-0.10159 -0.14424,-0.14981 -0.0597,-0.18132 0.2573,-0.0959 0.55457,-0.43793 0.66716,-0.76759 0.0937,-0.27451 0.16349,-0.34972 0.32428,-0.34972 0.1762,0 0.20052,0.0367 0.1739,0.26229 -0.0434,0.36766 -0.22328,0.68405 -0.54091,0.95131 -0.31597,0.26588 -0.333,0.26844 -0.56473,0.085 z m 2.0303,-0.0427 c -0.55653,-0.41511 -0.65511,-1.08072 -0.23784,-1.6058 0.14434,-0.18162 0.30537,-0.491953 0.35784,-0.689603 0.16159,-0.60874 0.17351,-0.6179 0.86603,-0.66537 0.67144,-0.046 0.72992,-0.0846 0.82664,-0.54485 0.0309,-0.14684 0.15074,-0.29083 0.31121,-0.37382 0.21881,-0.11315 0.26105,-0.18765 0.26117,-0.4606 9e-5,-0.26599 0.0634,-0.38513 0.34559,-0.65064 0.34606,-0.32561 0.61819,-0.97678 0.46936,-1.1231 -0.0396,-0.0389 -0.38124,0.0153 -0.75927,0.1204 l -0.68734,0.19114 -0.66615,0.80487 -0.66614,0.80486 -0.20246,-0.76115 c -0.15396,-0.57886 -0.26463,-0.81873 -0.46206,-1.00158 -0.32835,-0.30408 -0.6894,-0.31283 -1.01699,-0.0246 l -0.24531,0.21581 0.24043,0.003 c 0.23473,0.003 0.24043,0.015 0.24043,0.51717 0,0.48926 -0.0171,0.52987 -0.34997,0.83059 -0.19248,0.17389 -0.36736,0.31617 -0.38862,0.31617 -0.0213,0 -0.37398,-0.38725 -0.78383,-0.86057 -0.73261,-0.84605 -0.7552,-0.86325 -1.33812,-1.0189 -0.32611,-0.0871 -0.64796,-0.1784 -0.71521,-0.20293 -0.0981,-0.0358 -0.11271,0.0403 -0.0739,0.38503 0.041,0.36414 0.10293,0.47808 0.40642,0.74751 0.29266,0.25983 0.35806,0.37479 0.35806,0.62942 0,0.25329 0.0572,0.35517 0.306,0.54493 0.18553,0.14151 0.30601,0.30879 0.30601,0.42489 0,0.32084 0.18935,0.47707 0.61201,0.50495 l 0.39343,0.026 v 0.66238 c 0,0.579553 -0.0307,0.708723 -0.2454,1.032943 -0.24681,0.37268 -0.37236,0.41485 -0.52319,0.17573 -0.0577,-0.0915 -0.0148,-0.22798 0.14676,-0.46601 0.14868,-0.21909 0.2284,-0.454373 0.2284,-0.674083 0,-0.31861 -0.0151,-0.33752 -0.26902,-0.33752 -0.33997,0 -0.78014,-0.4155 -0.78014,-0.73643 0,-0.14295 -0.0484,-0.2253 -0.13243,-0.2253 -0.17676,0 -0.47884,-0.50849 -0.47925,-0.80671 -1.8e-4,-0.15904 -0.0748,-0.2872 -0.22394,-0.38493 -0.38488,-0.25218 -0.58683,-0.76891 -0.54672,-1.39884 0.0193,-0.30265 0.0618,-0.5771 0.0946,-0.60987 0.0499,-0.0499 0.42763,0.04 1.90746,0.45399 0.0764,0.0214 0.35179,0.29662 0.61201,0.61168 0.81973,0.99246 0.76546,0.94342 0.91077,0.82282 0.0719,-0.0596 0.13065,-0.1823 0.13065,-0.27258 0,-0.12411 -0.064,-0.16416 -0.26228,-0.16416 -0.22286,0 -0.26229,-0.0335 -0.26229,-0.22291 0,-0.25327 0.18774,-0.65554 0.38068,-0.81566 0.11368,-0.0943 0.103,-0.16872 -0.0854,-0.59466 -0.11841,-0.26775 -0.20269,-0.49943 -0.18728,-0.51483 0.0154,-0.0154 0.17479,0.005 0.35417,0.0455 0.30068,0.0678 0.34329,0.0521 0.54577,-0.20155 l 0.21964,-0.27511 0.23863,0.28195 c 0.22103,0.26115 0.26283,0.27635 0.5665,0.20593 0.38092,-0.0883 0.39595,-0.0461 0.153,0.43014 -0.21947,0.4302 -0.21904,0.54492 0.003,0.74567 0.0977,0.0884 0.2204,0.33058 0.27267,0.53813 0.0523,0.20755 0.1216,0.37736 0.15408,0.37736 0.0325,0 0.23437,-0.21516 0.44863,-0.47815 0.29097,-0.35713 0.47807,-0.50207 0.73928,-0.57267 0.19235,-0.052 0.6356,-0.17715 0.985,-0.27815 0.34941,-0.10101 0.65781,-0.16112 0.68535,-0.13358 0.1244,0.1244 0.20446,0.78897 0.13324,1.10598 -0.0872,0.3881 -0.37817,0.8374 -0.62937,0.97184 -0.11872,0.0635 -0.16878,0.18358 -0.16878,0.40479 0,0.24612 -0.0665,0.37717 -0.306,0.60306 -0.1683,0.15873 -0.30601,0.34724 -0.30601,0.41891 0,0.0717 -0.10185,0.25135 -0.22634,0.3993 -0.20831,0.24757 -0.26991,0.269 -0.77303,0.269 h -0.54668 l -0.11069,0.37158 c -0.0609,0.20436 -0.22448,0.526863 -0.36356,0.716663 -0.13908,0.18979 -0.25287,0.42995 -0.25287,0.53367 0,0.19833 0.28559,0.557 0.57311,0.71977 0.16791,0.095 0.16785,0.0979 -0.005,0.22967 -0.22057,0.16829 -0.21483,0.16883 -0.50517,-0.0477 z m -0.41285,-6.699223 c 0,-0.0365 -0.0856,-0.11988 -0.1903,-0.18524 -0.16406,-0.10246 -0.20443,-0.0995 -0.29279,0.0213 -0.0564,0.0771 -0.12811,0.11455 -0.15942,0.0832 -0.0313,-0.0313 -0.0569,-0.011 -0.0569,0.0451 0,0.0607 0.14156,0.10201 0.34972,0.10201 0.19235,0 0.34972,-0.0299 0.34972,-0.0664 z m -2.13713,6.279323 c -0.15267,-0.16869 -0.14937,-0.18034 0.114,-0.40195 0.15636,-0.13157 0.31039,-0.37364 0.36368,-0.57157 0.0923,-0.34277 0.34495,-0.47304 0.4833,-0.24918 0.0973,0.15749 -0.20719,0.81821 -0.51432,1.1159 -0.287,0.27817 -0.29076,0.27907 -0.44666,0.1068 z m -4.85685,-2.585803 c 0.10918,-0.33082 0.15648,-0.34789 0.60639,-0.21886 0.1648,0.0473 0.3136,0.072 0.33067,0.0549 0.0171,-0.0171 -0.29935,-0.55756 -0.70317,-1.20109 -0.92935,-1.48103 -1.16572,-1.95002 -1.3265,-2.63198 -0.30658,-1.30034 7.9e-4,-2.27983 0.77315,-2.4637 0.49014,-0.11668 1.10592,0.26668 1.10592,0.6885 0,0.19726 -0.37457,0.16707 -0.50429,-0.0406 -0.12997,-0.20812 -0.6433,-0.24115 -0.80068,-0.0515 -0.15953,0.19223 -0.19912,0.68494 -0.0741,0.92255 0.28537,0.54246 1.30898,0.52813 1.64504,-0.023 0.36507,-0.59873 0.12857,-1.46922 -0.47725,-1.75671 -0.41103,-0.19504 -1.05543,-0.17769 -1.50626,0.0405 -0.29586,0.14322 -0.42257,0.28047 -0.60706,0.65755 -0.22012,0.44992 -0.23065,0.529 -0.18839,1.4146 0.0312,0.65501 0.11522,1.17546 0.2783,1.72491 0.30499,1.02757 1.20006,3.27997 1.28303,3.22869 0.0356,-0.022 0.10989,-0.17709 0.16522,-0.34472 z m 14.06109,-0.841 c 1.12348,-2.85002 1.33219,-4.5929 0.65613,-5.47925 -0.28623,-0.37528 -0.68004,-0.54178 -1.28141,-0.54178 -1.03737,0 -1.69345,0.99991 -1.1938,1.81943 0.34656,0.56842 1.19954,0.68819 1.56771,0.22013 0.21711,-0.27601 0.23427,-0.78403 0.034,-1.00537 -0.20108,-0.2222 -0.69494,-0.21315 -0.81703,0.015 -0.0558,0.10418 -0.18306,0.17486 -0.31497,0.17486 -0.1881,0 -0.21287,-0.0296 -0.16472,-0.19672 0.0725,-0.25162 0.42526,-0.57316 0.70619,-0.64367 0.39379,-0.0988 0.84461,0.14534 1.06979,0.57941 0.18067,0.34829 0.19893,0.48009 0.16334,1.17899 -0.0527,1.03457 -0.22793,1.47185 -1.24402,3.10396 -0.45519,0.73117 -0.82762,1.36886 -0.82762,1.4171 0,0.0482 0.0688,0.0611 0.153,0.0285 0.0842,-0.0326 0.26235,-0.0813 0.39598,-0.10823 0.22032,-0.0444 0.25647,-0.0147 0.38774,0.31952 l 0.14477,0.36855 0.15554,-0.30316 c 0.0855,-0.16675 0.26979,-0.59301 0.40943,-0.94727 z m -17.55869,-4.14129 c 0,-0.26447 -0.027,-0.48086 -0.0599,-0.48086 -0.0961,0 -0.46464,0.37167 -0.46464,0.46861 0,0.10854 0.35282,0.49312 0.45239,0.49312 0.0397,0 0.0722,-0.21639 0.0722,-0.48087 z m 20.66116,-0.23527 c -0.12941,-0.13508 -0.2476,-0.24559 -0.26265,-0.24559 -0.015,0 -0.0274,0.22375 -0.0274,0.49722 v 0.49722 l 0.26265,-0.25163 0.26265,-0.25163 z m -5.62323,-0.77017 v -0.43715 h -3.0349 -3.0349 l 0.43058,-0.43715 0.43058,-0.43715 -0.43058,-0.43715 -0.43058,-0.43715 h 1.67974 c 0.92386,0 1.67872,-0.0295 1.67748,-0.0656 -0.002,-0.0652 -3.89969,-2.64853 -4.09308,-2.71299 -0.0725,-0.0242 -0.10129,0.22909 -0.10129,0.89154 0,0.50891 -0.0236,0.9253 -0.0525,0.9253 -0.0289,0 -0.23306,-0.17804 -0.45377,-0.39563 l -0.4013,-0.39563 -0.42052,0.4142 -0.42052,0.4142 v -1.0415 c 0,-0.60083 -0.0324,-1.00636 -0.0766,-0.95844 -0.13893,0.15068 -0.53534,1.47588 -0.70812,2.36719 -0.12576,0.64873 -0.3519,2.67251 -0.3519,3.14921 0,0.0171 2.20323,0.031 4.89607,0.031 h 4.89607 z m -7.99983,0 c -0.087,-0.0962 -0.26696,-0.17486 -0.39983,-0.17486 -0.41664,0 -0.51818,-0.0821 -0.51818,-0.41901 0,-0.2009 -0.068,-0.38529 -0.1901,-0.51523 l -0.1901,-0.20235 0.18397,-0.19671 c 0.10706,-0.11448 0.19567,-0.34292 0.21195,-0.54644 0.0272,-0.33958 0.0381,-0.35053 0.37771,-0.37771 0.20352,-0.0163 0.43196,-0.1049 0.54644,-0.21196 l 0.19672,-0.18397 0.20235,0.1901 c 0.1322,0.1242 0.31407,0.1901 0.52458,0.1901 0.3086,0 0.32223,0.0127 0.32223,0.2993 0,0.19578 0.0797,0.39399 0.23036,0.57307 l 0.23036,0.27376 -0.23036,0.24045 c -0.16393,0.1711 -0.23036,0.33362 -0.23036,0.56352 0,0.31647 -0.007,0.32308 -0.33617,0.32308 -0.22514,0 -0.38844,0.0578 -0.49442,0.17486 -0.087,0.0962 -0.18539,0.17486 -0.21857,0.17486 -0.0332,0 -0.13154,-0.0787 -0.21858,-0.17486 z m 0.39344,-0.56829 c 0.0599,-0.0721 0.18271,-0.13115 0.27299,-0.13115 0.0951,0 0.16416,-0.0615 0.16416,-0.14612 0,-0.0804 0.0651,-0.21806 0.14469,-0.306 0.13464,-0.14878 0.13464,-0.171 0,-0.31977 -0.0796,-0.0879 -0.14469,-0.22564 -0.14469,-0.30601 0,-0.0804 -0.0658,-0.14612 -0.14612,-0.14612 -0.0804,0 -0.21014,-0.0579 -0.28839,-0.12875 -0.12558,-0.11365 -0.17784,-0.11126 -0.44548,0.0204 -0.17484,0.086 -0.36637,0.27753 -0.45238,0.45237 -0.13663,0.27774 -0.13745,0.31615 -0.01,0.4572 0.0767,0.0847 0.11615,0.21447 0.0878,0.28839 -0.0374,0.0974 0.005,0.1344 0.15355,0.1344 0.11282,0 0.25411,0.059 0.31397,0.13115 0.0599,0.0721 0.13855,0.13114 0.17486,0.13114 0.0363,0 0.115,-0.059 0.17486,-0.13114 z m -2.49689,-0.85244 c 0.16352,-1.69437 0.72285,-3.65965 1.40871,-4.94966 0.21381,-0.40214 0.38874,-0.7464 0.38874,-0.76501 0,-0.0186 -0.13966,-0.0339 -0.31035,-0.0339 -0.39043,0 -0.74031,-0.17864 -1.0344,-0.52814 -0.18007,-0.214 -0.22899,-0.36533 -0.22899,-0.70833 0,-0.23991 0.0407,-0.51229 0.0905,-0.6053 0.11606,-0.21686 -0.0502,-0.22845 -0.3552,-0.0248 -1.13946,0.76093 -1.38109,1.86464 -0.90652,4.1407 0.27649,1.32599 0.26274,2.35311 -0.0394,2.94539 -0.10216,0.20025 -0.22565,0.38875 -0.27443,0.4189 -0.17204,0.10633 -0.085,0.1976 0.23919,0.25081 0.18032,0.0296 0.44589,0.15125 0.59015,0.27032 0.14426,0.11908 0.28671,0.21792 0.31656,0.21965 0.0299,0.002 0.0818,-0.2821 0.11545,-0.63072 z m 10.90196,0.41877 c 0.1406,-0.11831 0.39217,-0.24072 0.55906,-0.27202 0.16689,-0.0313 0.30293,-0.0624 0.30232,-0.0691 -6.2e-4,-0.007 -0.11541,-0.2375 -0.25513,-0.51297 -0.38597,-0.76101 -0.42004,-1.37994 -0.15364,-2.79044 0.3097,-1.6397 0.34602,-2.06715 0.23149,-2.72481 -0.12833,-0.73692 -0.47139,-1.28402 -0.99908,-1.59326 -0.22229,-0.13027 -0.42736,-0.21367 -0.4557,-0.18532 -0.0283,0.0283 -0.002,0.17017 0.0577,0.31517 0.31104,0.75092 -0.37648,1.66542 -1.25207,1.66542 h -0.3094 l 0.38136,0.7213 c 0.65574,1.24025 1.24362,3.1964 1.39915,4.65564 0.0722,0.67793 0.13491,1.00544 0.19234,1.00544 0.0253,0 0.16104,-0.0968 0.30163,-0.21509 z m -1.58583,-0.004 c -0.06,-0.0723 -0.33556,-0.26904 -0.6123,-0.43715 l -0.50316,-0.30566 h -1.51197 -1.51197 l 0.20534,0.21858 0.20534,0.21857 -0.20534,0.21858 -0.20534,0.21857 h 2.12426 c 1.88083,0 2.11176,-0.0151 2.01514,-0.13149 z m 0.65291,-0.69362 c -0.0478,-0.38215 -0.11193,-0.53048 -0.29136,-0.67335 -0.22891,-0.18227 -6.82548,-4.55616 -7.1128,-4.71618 -0.12196,-0.0679 -0.19502,-0.0167 -0.38437,0.26941 -0.12858,0.1943 -0.2182,0.36725 -0.19914,0.38434 0.0274,0.0246 7.12055,4.71244 7.81591,5.16555 0.0962,0.0627 0.18794,0.10188 0.20393,0.0871 0.016,-0.0147 0.002,-0.24735 -0.0322,-0.51691 z m -0.56325,-0.0214 c -10e-4,-0.0569 -0.0799,-0.12815 -0.17528,-0.15841 -0.1626,-0.0516 -0.16471,-0.0682 -0.0342,-0.26743 0.15239,-0.23258 0.3211,-0.21117 0.23101,0.0293 -0.048,0.12823 -0.0358,0.1336 0.0835,0.0367 0.2094,-0.17014 0.25279,9e-5 0.063,0.24712 -0.0913,0.11887 -0.16695,0.16961 -0.16802,0.11274 z m -0.61395,-0.42118 c -0.0869,-0.10473 -0.0866,-0.15799 0.002,-0.26441 0.0608,-0.0733 0.0799,-0.16181 0.0425,-0.19671 -0.0375,-0.0349 -0.085,-0.0165 -0.10554,0.0409 -0.0206,0.0576 -0.10347,0.0796 -0.18475,0.0492 -0.12917,-0.0484 -0.13234,-0.0367 -0.0257,0.0943 0.10633,0.13067 0.10357,0.14258 -0.0219,0.0944 -0.16873,-0.0647 -0.1796,-0.20078 -0.0314,-0.39344 0.0971,-0.12628 0.12706,-0.12602 0.33919,0.003 0.18726,0.11376 0.21556,0.17195 0.14499,0.29806 -0.12401,0.2216 -0.008,0.29618 0.14503,0.0935 0.0701,-0.0927 0.12871,-0.12211 0.13024,-0.0654 0.002,0.0899 -0.22525,0.37783 -0.29876,0.37783 -0.0147,0 -0.0757,-0.059 -0.1356,-0.13115 z m -0.71681,-0.51072 c -0.0752,-0.0752 -0.16103,-0.11232 -0.1908,-0.0826 -0.10282,0.10282 -0.0482,-0.10664 0.0676,-0.25916 0.14173,-0.18671 0.22802,-0.19602 0.22802,-0.0246 0,0.0782 0.0513,0.10873 0.13114,0.0781 0.16191,-0.0621 0.16907,0.0579 0.0159,0.26737 -0.10447,0.14288 -0.12793,0.14483 -0.25188,0.0209 z m -0.56302,-0.45101 c 0.0505,-0.13156 -0.0723,-0.18861 -0.14115,-0.0656 -0.0202,0.0361 -0.0205,0.007 -7.9e-4,-0.0656 0.0725,-0.26522 0.0639,-0.30601 -0.0645,-0.30601 -0.0721,0 -0.12568,0.0688 -0.119,0.153 0.0149,0.18762 -0.12972,0.20266 -0.19953,0.0207 -0.0497,-0.12957 0.10327,-0.39232 0.22843,-0.39232 0.11068,0 0.43982,0.32232 0.43982,0.4307 0,0.0573 0.0394,0.0799 0.0874,0.0502 0.12242,-0.0757 0.10939,0.0742 -0.0175,0.20109 -0.14659,0.14659 -0.27351,0.13097 -0.21319,-0.0262 z m -0.79356,-0.42695 c -0.25898,-0.24315 -0.37733,-0.3162 -0.5123,-0.3162 -0.10768,0 -0.13423,-0.0565 -0.10309,-0.21934 0.036,-0.18831 0.0231,-0.20377 -0.0915,-0.10929 -0.107,0.0883 -0.1407,0.0883 -0.17035,2.6e-4 -0.0203,-0.0604 -0.0729,-0.0876 -0.11693,-0.0604 -0.10518,0.065 -0.10126,-0.02 0.0105,-0.22894 0.1088,-0.20328 0.25921,-0.22232 0.25921,-0.0328 0,0.075 0.0394,0.11199 0.0874,0.0823 0.0481,-0.0297 0.0874,-0.0124 0.0874,0.0386 0,0.0509 0.0787,0.0926 0.17486,0.0926 0.16107,0 0.2189,0.0959 0.18028,0.29895 -0.008,0.0442 0.046,0.0296 0.12079,-0.0326 0.11628,-0.0965 0.13608,-0.0844 0.13608,0.0833 0,0.16455 0.0212,0.17868 0.13115,0.0874 0.10576,-0.0878 0.1306,-0.0856 0.12836,0.0112 -0.005,0.22145 -0.20718,0.41287 -0.32201,0.30505 z m -0.28722,-0.54206 c 0,-0.1544 -0.18821,-0.12751 -0.24225,0.0346 -0.019,0.0571 0.0277,0.10383 0.10382,0.10383 0.0761,0 0.13843,-0.0623 0.13843,-0.13843 z m -1.22402,-0.42206 c 0,-0.0347 0.0399,-0.13747 0.0885,-0.22846 0.0708,-0.13235 0.0512,-0.18541 -0.098,-0.26526 -0.12836,-0.0687 -0.16812,-0.0701 -0.12752,-0.004 0.0324,0.0525 0.0244,0.15727 -0.0179,0.23282 -0.0697,0.12453 -0.0875,0.12459 -0.1903,6.9e-4 -0.0842,-0.1014 -0.0883,-0.16694 -0.0161,-0.254 0.14923,-0.17982 0.003,-0.25191 -0.17816,-0.0879 -0.088,0.0797 -0.1601,0.10176 -0.1601,0.049 0,-0.0527 0.0376,-0.11907 0.0836,-0.14749 0.046,-0.0284 0.0592,-0.11528 0.0294,-0.19302 -0.0324,-0.0844 0.16578,0.008 0.49142,0.22921 0.30011,0.2038 0.53279,0.37728 0.51706,0.38551 -0.0157,0.008 -0.11712,0.0895 -0.22531,0.18057 -0.10819,0.0911 -0.19672,0.13727 -0.19672,0.10261 z m -0.96172,-0.73151 c 0,-0.10687 0.0459,-0.19431 0.102,-0.19431 0.0561,0 0.076,-0.026 0.0442,-0.0577 -0.0318,-0.0318 -0.14335,0.0174 -0.24797,0.10929 -0.14738,0.12942 -0.17903,0.13615 -0.14052,0.0299 0.0356,-0.0983 -0.003,-0.13544 -0.13817,-0.13115 -0.13293,0.004 -0.1964,-0.0541 -0.21698,-0.19953 -0.0234,-0.16513 -0.0706,-0.19759 -0.24043,-0.16513 -0.23888,0.0457 -0.2469,0.0322 -0.12084,-0.20339 0.10765,-0.20114 0.33173,-0.22228 0.40246,-0.038 0.0277,0.0721 0.1248,0.13114 0.21583,0.13114 0.14564,0 0.20314,0.0885 0.17885,0.27518 -0.004,0.0311 0.0695,0.0365 0.16344,0.0119 0.23379,-0.0611 0.31088,0.1795 0.13702,0.42772 l -0.13894,0.19837 z m -0.26229,-0.50548 c 0,-0.14426 -0.13818,-0.16863 -0.21858,-0.0385 -0.0713,0.11537 0.0332,0.27908 0.13719,0.21484 0.0448,-0.0277 0.0814,-0.10699 0.0814,-0.17629 z m -1.11879,-0.55915 c 0.13935,-0.22312 0.0159,-0.34581 -0.13721,-0.13639 -0.0718,0.0983 -0.17354,0.13935 -0.26138,0.10565 -0.18157,-0.0697 -0.18497,-0.26737 -0.007,-0.41495 0.12006,-0.0996 0.12995,-0.0824 0.0815,0.1423 -0.0523,0.2422 -0.048,0.24684 0.0805,0.088 0.11488,-0.14205 0.1695,-0.15228 0.35696,-0.0669 l 0.22134,0.10085 -0.17615,0.17614 c -0.22359,0.22359 -0.2962,0.22601 -0.15834,0.005 z m -4.48106,4.47273 c 0.25933,-0.25933 0.44148,-0.88229 0.44148,-1.50983 0,-0.19077 -0.0984,-0.84118 -0.21857,-1.44535 -0.51458,-2.58616 -0.13619,-4.03949 1.21861,-4.68043 0.92725,-0.43866 1.8961,-0.29427 2.2604,0.33689 0.0894,0.15495 0.13763,0.32216 0.1071,0.37157 -0.0979,0.15848 -0.38549,0.0961 -0.49236,-0.10688 -0.20684,-0.39277 -0.5042,-0.43361 -0.82455,-0.11326 -0.28247,0.28247 -0.28797,0.73951 -0.0127,1.05948 0.15552,0.1808 0.30382,0.24448 0.6459,0.27735 0.41052,0.0394 0.46854,0.0202 0.76848,-0.25467 0.26248,-0.24054 0.33334,-0.37626 0.37103,-0.71064 0.0621,-0.55126 -0.15487,-1.10208 -0.58854,-1.49387 -0.418,-0.37763 -0.93445,-0.52699 -1.58807,-0.45925 -1.00372,0.10401 -1.64653,0.45102 -2.12734,1.14842 -0.6068,0.88017 -0.70667,2.03159 -0.30334,3.4972 0.31556,1.14664 0.34258,1.28905 0.34476,1.81697 0.003,0.67888 -0.18032,1.11193 -0.4702,1.11193 -0.76745,0 -1.13958,0.92051 -0.51019,1.26202 0.37582,0.20392 0.70253,0.16796 0.97814,-0.10765 z m 14.72447,0.0633 c 0.16614,-0.13069 0.23037,-0.26205 0.23037,-0.47118 0,-0.40922 -0.23513,-0.66033 -0.67331,-0.71911 -0.32618,-0.0438 -0.38019,-0.0857 -0.50183,-0.38969 -0.20354,-0.50871 -0.16883,-0.96352 0.17935,-2.35018 0.27653,-1.10126 0.31105,-1.35521 0.27842,-2.04822 -0.061,-1.29653 -0.54588,-2.06856 -1.60304,-2.55255 -0.90178,-0.41284 -2.09859,-0.3345 -2.64974,0.17345 -0.50647,0.46676 -0.72584,1.58684 -0.40148,2.04992 0.45069,0.64344 1.55773,0.58253 1.78235,-0.0981 0.25277,-0.76592 -0.58661,-1.35794 -1.00974,-0.71216 -0.15425,0.23542 -0.47191,0.2961 -0.47191,0.0901 0,-0.26822 0.20582,-0.55761 0.52363,-0.73622 1.02721,-0.57733 2.67012,0.20278 3.11279,1.47806 0.23351,0.67269 0.2167,2.11659 -0.0376,3.22801 -0.20166,0.88145 -0.24474,1.94225 -0.10004,2.4632 0.19345,0.69646 0.84513,0.98524 1.34175,0.5946 z m -3.4039,-1.45811 c -0.15633,-0.70944 -0.59821,-1.98911 -0.90592,-2.62347 -0.68011,-1.40211 -1.44725,-2.30193 -2.37702,-2.78813 -0.40049,-0.20943 -0.57483,-0.24635 -1.17005,-0.24779 -0.58805,-0.001 -0.77602,0.0363 -1.1803,0.2369 -0.49385,0.24503 -1.31145,0.89147 -1.31145,1.03689 0,0.0449 1.40653,1.00875 3.12561,2.14198 1.71909,1.13322 3.26286,2.15572 3.43059,2.27223 0.39039,0.27116 0.45357,0.26651 0.38854,-0.0286 z m -5.40015,-3.48991 c -0.0321,-0.032 -0.0583,-0.28778 -0.0583,-0.56829 0,-0.39505 0.0296,-0.51001 0.13114,-0.51001 0.10312,0 0.13114,0.12143 0.13114,0.5683 0,0.52413 -0.0542,0.65976 -0.204,0.51 z m 0.46629,-0.51 c 0,-0.44687 0.028,-0.5683 0.13115,-0.5683 0.0816,0 0.13114,0.0826 0.13114,0.21858 0,0.16029 0.0466,0.21857 0.17486,0.21857 0.12823,0 0.17486,-0.0583 0.17486,-0.21857 0,-0.136 0.0496,-0.21858 0.13115,-0.21858 0.10329,0 0.13114,0.12224 0.13114,0.57558 0,0.42132 -0.0293,0.56597 -0.10928,0.5397 -0.0601,-0.0197 -0.12174,-0.14105 -0.13696,-0.26958 -0.0416,-0.35176 -0.36577,-0.32642 -0.36577,0.0286 0,0.17486 -0.0437,0.26229 -0.13114,0.26229 -0.10312,0 -0.13115,-0.12143 -0.13115,-0.56829 z m 1.15845,0.51039 c -0.22788,-0.0919 -0.11134,-0.26183 0.153,-0.22304 0.15745,0.0231 0.26229,-4.3e-4 0.26229,-0.0589 0,-0.0535 -0.059,-0.0974 -0.13114,-0.0974 -0.0721,0 -0.21074,-0.0796 -0.30801,-0.17686 -0.25588,-0.25588 -0.0937,-0.54345 0.28522,-0.50582 0.14939,0.0148 0.2896,0.0817 0.3116,0.14858 0.0301,0.0915 -0.0157,0.10767 -0.18463,0.0653 -0.35017,-0.0879 -0.36574,0.0988 -0.0203,0.24316 0.20929,0.0874 0.30953,0.18641 0.30953,0.30558 0,0.26313 -0.36629,0.42496 -0.67758,0.29935 z m -0.89616,-1.37741 c 0,-0.1162 -0.0447,-0.22618 -0.0993,-0.2444 -0.15365,-0.0512 0.10999,-0.4186 0.30039,-0.4186 0.0874,0 0.13468,0.0393 0.10496,0.0874 -0.0297,0.0481 0.007,0.0874 0.0823,0.0874 0.075,0 0.1363,0.059 0.1363,0.13115 0,0.0721 -0.0393,0.13114 -0.0874,0.13114 -0.0481,0 -0.0874,0.0984 -0.0874,0.21858 0,0.16029 -0.0466,0.21857 -0.17486,0.21857 -0.12662,0 -0.17486,-0.0583 -0.17486,-0.21129 z m -2.49175,3.70849 0.21858,0.20534 -0.002,-0.60539 -0.002,-0.6054 -0.43558,-0.28481 -0.43558,-0.28482 v 0.89021 0.89021 l 0.21859,-0.20534 0.21857,-0.20534 z m 1.08707,-4.55942 c 0.38656,-0.24031 0.44296,-0.31193 0.44296,-0.56261 0,-0.58356 -0.0986,-0.68711 -0.76308,-0.80105 -0.33403,-0.0573 -0.68012,-0.13207 -0.76909,-0.16622 -0.1278,-0.049 -0.11028,0.005 0.0834,0.2594 0.29115,0.38172 0.47786,0.86928 0.48316,1.26169 0.002,0.15628 0.0209,0.28415 0.0417,0.28415 0.0208,0 0.23724,-0.12392 0.48087,-0.27536 z m 3.7506,-0.2462 c 0.0712,-0.34464 0.21037,-0.65603 0.41035,-0.91801 0.16644,-0.21806 0.27338,-0.39421 0.23763,-0.39145 -0.0358,0.003 -0.37974,0.0742 -0.76444,0.15871 -0.66826,0.14686 -0.70409,0.16709 -0.80379,0.454 -0.18449,0.53092 -0.14664,0.67363 0.22957,0.86556 0.18908,0.0965 0.36845,0.21529 0.39859,0.26407 0.11332,0.18335 0.18752,0.0734 0.29209,-0.43288 z m -1.47162,-0.2981 c 0,-0.0661 0.0246,-0.24316 0.0546,-0.39343 l 0.0546,-0.27322 h -0.808 c -0.79525,0 -0.80716,0.003 -0.75527,0.19672 0.029,0.10819 0.0532,0.28523 0.0539,0.39343 10e-4,0.18751 0.0339,0.19672 0.70063,0.19672 0.53518,0 0.69944,-0.0282 0.69944,-0.12022 z m 0.78687,-1.19281 c 0.80522,-0.12424 1.67297,-0.41198 1.97304,-0.65424 0.2473,-0.19966 0.25165,-0.21578 0.12219,-0.45319 -0.17882,-0.3279 -1.08617,-0.78039 -1.92037,-0.95766 -1.39022,-0.29543 -3.35424,-0.12873 -4.43303,0.37626 -0.49998,0.23405 -0.92026,0.66208 -0.84434,0.85991 0.0806,0.21007 0.92616,0.56907 1.74843,0.74234 0.87447,0.18427 2.45633,0.2251 3.35408,0.0866 z m 3.13924,-2.48758 c 0.34114,-0.57562 0.619,-1.10675 0.61747,-1.18031 -0.002,-0.0871 -0.0652,-0.0501 -0.18171,0.10611 -0.14886,0.1995 -0.20802,0.22428 -0.3518,0.14733 -0.0951,-0.0509 -0.21974,-0.0769 -0.27706,-0.0578 -0.0596,0.0199 -0.0202,0.0797 0.0923,0.13989 0.2552,0.13658 0.24876,0.20493 -0.0721,0.76579 l -0.26862,0.46949 -0.36525,-0.25037 c -0.20089,-0.13771 -0.5718,-0.35469 -0.82425,-0.48218 -0.51282,-0.25898 -0.5177,-0.27638 -0.29752,-1.05945 l 0.1475,-0.52458 0.32637,0.0287 c 0.39072,0.0344 0.43748,-0.12154 0.0612,-0.20418 -0.23818,-0.0523 -0.26262,-0.0881 -0.24043,-0.35244 0.0264,-0.31411 -0.12863,-0.4652 -0.17595,-0.17152 -0.0586,0.3637 -0.0858,0.38684 -0.36189,0.30766 -0.35887,-0.10292 -0.44851,0.0624 -0.0998,0.18402 0.31897,0.1112 0.31874,0.10883 0.0882,0.88304 -0.11887,0.39914 -0.21801,0.59237 -0.28978,0.56483 -0.12328,-0.0473 -1.27224,-0.22377 -1.67157,-0.25673 l -0.26229,-0.0217 v -0.74315 -0.74316 l 0.33321,-0.0275 c 0.28615,-0.0236 0.32936,-0.0544 0.306,-0.21857 -0.0215,-0.15106 -0.0949,-0.19675 -0.35008,-0.21796 -0.30337,-0.0252 -0.32451,-0.0464 -0.34972,-0.34972 -0.037,-0.44485 -0.27899,-0.44485 -0.31597,0 -0.0252,0.30336 -0.0464,0.3245 -0.34972,0.34972 -0.25565,0.0212 -0.32288,0.0632 -0.32288,0.20169 0,0.13895 0.0673,0.18044 0.32786,0.202 l 0.32786,0.0271 v 0.78159 0.78159 h -0.37737 c -0.34526,0 -1.21221,0.12574 -1.55673,0.22578 -0.11127,0.0323 -0.17191,-0.0788 -0.28177,-0.51612 -0.077,-0.30652 -0.16499,-0.62244 -0.19554,-0.70207 -0.0423,-0.11029 0.009,-0.15771 0.2162,-0.19912 0.14947,-0.0299 0.27176,-0.10844 0.27176,-0.17456 0,-0.14267 0.0233,-0.13976 -0.32317,-0.0404 -0.26128,0.0749 -0.2817,0.0643 -0.33401,-0.17386 -0.0907,-0.41308 -0.25126,-0.426 -0.19624,-0.0158 0.045,0.33514 0.034,0.35679 -0.20527,0.40463 -0.13902,0.0278 -0.25276,0.0953 -0.25276,0.1499 0,0.0654 0.10042,0.0805 0.294,0.0442 l 0.29401,-0.0551 0.14904,0.54814 c 0.082,0.30148 0.16687,0.6112 0.18866,0.68826 0.0287,0.10144 -0.11761,0.21752 -0.53,0.42054 -0.31329,0.15423 -0.68953,0.38132 -0.83608,0.50463 -0.14655,0.12332 -0.27755,0.20948 -0.2911,0.19147 -0.11856,-0.15745 -0.57998,-0.96772 -0.57998,-1.01846 0,-0.0358 0.0787,-0.11422 0.17486,-0.17429 0.0962,-0.0601 0.17486,-0.14911 0.17486,-0.1979 0,-0.0488 -0.10313,-0.0211 -0.22917,0.0615 -0.21846,0.14314 -0.23481,0.14246 -0.34972,-0.0147 -0.0663,-0.0907 -0.12055,-0.19668 -0.12055,-0.23558 0,-0.0389 -0.0393,-0.0707 -0.0874,-0.0707 -0.0481,0 -0.0874,0.0352 -0.0874,0.0782 0,0.0699 1.16421,2.07692 1.26072,2.17342 0.0216,0.0216 0.17136,-0.0615 0.33282,-0.18467 0.83527,-0.6371 2.01915,-0.95344 3.60854,-0.96425 1.67869,-0.0114 3.20685,0.40458 3.79809,1.03393 0.11539,0.12283 0.21906,0.21364 0.23037,0.20181 0.0113,-0.0118 0.29967,-0.49247 0.6408,-1.06808 z m 62.083424,11.58186 V 69.536657 H 104.38153 82.436636 v 21.71175 c 0,11.941463 0.0262,21.737973 0.0583,21.770033 0.0321,0.032 9.90726,0.0583 21.944894,0.0583 h 21.8866 z m -31.760254,4.45123 c -0.81568,-0.19218 -1.61664,-0.83918 -1.96994,-1.5913 -0.4127,-0.87856 -0.45903,-1.33961 -0.43425,-4.32146 l 0.0231,-2.77881 h 0.74315 0.74316 l 0.0437,3.01632 c 0.0435,3.00153 0.0448,3.01848 0.26229,3.4529 0.13849,0.27662 0.35748,0.53288 0.59768,0.69944 0.35018,0.24281 0.43692,0.26287 1.13659,0.26287 0.85901,0 1.17371,-0.12922 1.59692,-0.65572 0.45328,-0.5639 0.51572,-1.05834 0.51572,-4.08386 v -2.73567 h 0.65573 0.65572 v 2.84607 c 0,3.33344 -0.0563,3.73785 -0.64177,4.61124 -0.41083,0.61287 -0.98209,1.04104 -1.65593,1.24115 -0.48452,0.14388 -1.73166,0.1641 -2.27187,0.0368 z m 13.098314,-0.36388 c -0.45148,-0.48732 -2.17978,-2.27602 -3.95659,-4.09486 l -1.07495,-1.10039 v 2.69598 2.69599 h -0.74316 -0.74315 v -4.36634 c 0,-2.43896 0.0342,-4.38744 0.0774,-4.41416 0.0676,-0.0418 3.21025,3.13297 4.94982,5.0004 l 0.61201,0.65699 0.0437,-2.70065 0.0437,-2.70065 0.7213,-0.0254 0.72129,-0.0254 v 4.41874 c 0,3.55555 -0.0221,4.41874 -0.11307,4.41874 -0.0622,0 -0.30443,-0.20655 -0.53832,-0.459 z m 5.09533,0.24943 c -1.80209,-0.63609 -2.88269,-2.26728 -2.88269,-4.3515 0,-2.72136 2.04619,-4.70411 4.64758,-4.50351 0.67634,0.0522 1.36913,0.27062 1.90462,0.6006 l 0.28848,0.17776 -0.053,0.62406 c -0.0943,1.10994 -0.078,1.08817 -0.51282,0.68738 -1.11039,-1.02352 -2.98294,-0.92344 -3.98317,0.21288 -0.53516,0.60797 -0.73828,1.21753 -0.73828,2.21555 0,0.99804 0.20312,1.60758 0.73833,2.21561 0.52196,0.59298 1.1732,0.87293 2.05034,0.88139 0.61936,0.006 0.76741,-0.0258 1.26774,-0.27212 0.31156,-0.15339 0.73368,-0.42202 0.93805,-0.59697 l 0.37158,-0.31808 v 0.56291 c 0,0.3096 -0.0245,0.74143 -0.0544,0.95964 -0.0512,0.37322 -0.0816,0.41052 -0.51421,0.62939 -1.05775,0.53517 -2.42416,0.64352 -3.46817,0.27501 z m 22.25807,18.008253 c -0.41708,-0.18158 -0.88721,-0.72295 -1.04787,-1.20663 -0.19319,-0.58165 -0.13874,-1.70336 0.1094,-2.25355 0.34613,-0.76748 0.90379,-1.13659 1.71718,-1.13659 0.37638,0 0.5475,0.0518 0.85525,0.2587 l 0.38474,0.2587 0.0437,-1.06743 0.0437,-1.06742 h 0.306 0.306 l 0.023,3.0819 0.023,3.0819 h -0.30713 c -0.28697,0 -0.30712,-0.0183 -0.30712,-0.27864 v -0.27865 l -0.24043,0.22495 c -0.52886,0.4948 -1.29796,0.64898 -1.90942,0.38276 z m 1.46613,-0.69026 c 0.35598,-0.21753 0.53997,-0.66728 0.57927,-1.41597 0.062,-1.1809 -0.34331,-1.82024 -1.15388,-1.82024 -0.44564,0 -0.84766,0.22022 -1.06085,0.58112 -0.19647,0.3326 -0.27203,1.36818 -0.13642,1.86961 0.10998,0.40664 0.51466,0.86686 0.81702,0.92915 0.26613,0.0548 0.74888,-0.0178 0.95486,-0.14367 z m 3.35795,0.63703 c -0.46892,-0.23399 -0.64864,-0.41177 -0.88255,-0.87301 -0.4157,-0.81972 -0.36247,-2.04021 0.11997,-2.75058 0.12965,-0.19091 0.40512,-0.46615 0.61216,-0.61167 0.34596,-0.24315 0.43536,-0.26456 1.10452,-0.26456 0.67004,0 0.75831,0.0212 1.1072,0.26617 0.52293,0.36715 0.78701,0.87752 0.84044,1.62424 l 0.043,0.60134 h -1.64057 -1.64056 l 0.0455,0.40342 c 0.11993,1.06403 1.30259,1.52744 2.04982,0.80319 0.15772,-0.15286 0.30937,-0.34918 0.33701,-0.43627 0.0373,-0.11747 0.139,-0.15834 0.39408,-0.15834 0.42918,0 0.4485,0.15045 0.0916,0.71321 -0.49333,0.77789 -1.73369,1.10598 -2.58162,0.68286 z m 2.1344,-2.74553 c 0,-0.23242 -0.18446,-0.61611 -0.40973,-0.85227 -0.62015,-0.65013 -1.81837,-0.23123 -2.00479,0.70087 l -0.0554,0.27685 h 1.23495 c 1.01454,0 1.23494,-0.0224 1.23494,-0.12545 z m 5.85321,2.82214 c -0.56083,-0.14986 -1.14559,-0.67707 -1.48172,-1.33586 -0.30533,-0.59843 -0.306,-0.60239 -0.306,-1.78902 0,-1.117 0.0144,-1.21862 0.23752,-1.67241 0.28041,-0.57041 0.65159,-0.97133 1.19297,-1.2886 0.32225,-0.18885 0.53095,-0.23709 1.15479,-0.26691 1.2626,-0.0604 2.02504,0.31661 2.47777,1.2251 0.33166,0.66557 0.3096,0.76984 -0.16289,0.76984 -0.37355,0 -0.39612,-0.0151 -0.55642,-0.37158 -0.29092,-0.64701 -0.78497,-0.93987 -1.58558,-0.93987 -0.54698,0 -1.23093,0.34671 -1.51486,0.76791 -0.32612,0.48377 -0.44082,0.94093 -0.44349,1.76756 -0.005,1.50177 0.57356,2.34603 1.71442,2.50239 0.84301,0.11555 1.51443,-0.29954 1.85568,-1.14723 l 0.21117,-0.52458 h 0.37607 c 0.36609,0 0.37529,0.007 0.34672,0.26229 -0.0876,0.78248 -0.79927,1.68088 -1.55582,1.96394 -0.51304,0.19196 -1.39983,0.2268 -1.96033,0.077 z m 5.51529,0.008 c -0.9375,-0.3932 -1.38592,-1.39027 -1.21989,-2.71253 0.16479,-1.31238 1.11421,-2.11271 2.32658,-1.96124 0.60632,0.0758 1.2208,0.48495 1.51244,1.00717 0.19575,0.3505 0.21972,0.49362 0.21972,1.31145 0,0.85553 -0.0178,0.95054 -0.26229,1.39593 -0.15995,0.29145 -0.41003,0.58128 -0.64093,0.74283 -0.33118,0.2317 -0.46268,0.26754 -1.04916,0.28594 -0.36878,0.0116 -0.7677,-0.0197 -0.88647,-0.0695 z m 1.3502,-0.64365 c 0.41451,-0.1732 0.67456,-0.70846 0.72529,-1.49292 0.0786,-1.21458 -0.29246,-1.7969 -1.18605,-1.86153 -0.44755,-0.0324 -0.53867,-0.01 -0.77732,0.1908 -0.38164,0.32112 -0.57471,0.85147 -0.57639,1.58329 -0.003,1.30491 0.79994,2.00425 1.81447,1.58036 z m 6.15487,0.56115 c -0.1745,-0.0922 -0.42185,-0.29193 -0.54967,-0.44384 -0.94696,-1.1254 -0.63569,-3.29552 0.56095,-3.91087 0.55391,-0.28483 1.33278,-0.24154 1.77911,0.0989 l 0.31378,0.23934 0.0246,-1.0734 0.0245,-1.0734 h 0.34972 0.34972 l 0.023,3.0819 0.023,3.08191 h -0.35084 c -0.33515,0 -0.35083,-0.0123 -0.35083,-0.27506 v -0.27506 l -0.21852,0.23578 c -0.4568,0.4929 -1.36653,0.63719 -1.97851,0.31381 z m 1.35457,-0.55717 c 0.63817,-0.26665 0.94996,-1.12034 0.77731,-2.12828 -0.1077,-0.62872 -0.31852,-0.92999 -0.7919,-1.13159 -0.92315,-0.39315 -1.81052,0.63096 -1.64272,1.89585 0.10638,0.80199 0.38948,1.24325 0.89478,1.39467 0.35823,0.10735 0.44011,0.10406 0.76253,-0.0307 z m 3.5534,0.59328 c -0.41674,-0.18072 -0.67969,-0.44244 -0.92128,-0.91697 -0.42446,-0.83374 -0.36034,-2.06095 0.14776,-2.82805 0.82598,-1.247 2.70178,-1.18279 3.46689,0.11868 0.21505,0.36579 0.23477,0.47716 0.23322,1.31758 -0.001,0.8206 -0.0261,0.9644 -0.23178,1.35516 -0.27459,0.52169 -0.5306,0.77518 -0.96708,0.95756 -0.41034,0.17145 -1.32809,0.16935 -1.72773,-0.004 z m 1.57362,-0.66752 c 0.45164,-0.28035 0.73994,-1.54467 0.52953,-2.32224 -0.0558,-0.20626 -0.21172,-0.4984 -0.34647,-0.64921 -0.21103,-0.23619 -0.3165,-0.27932 -0.76071,-0.31112 -0.43298,-0.031 -0.5547,-0.006 -0.7586,0.15475 -0.96581,0.76218 -0.84057,2.79236 0.1992,3.22902 0.26126,0.10971 0.88699,0.054 1.13705,-0.1012 z m 3.62784,0.67249 c -0.14427,-0.0733 -0.32761,-0.21074 -0.40745,-0.30547 -0.19194,-0.22774 -0.24828,-0.21723 -0.24828,0.0463 0,0.19683 -0.0349,0.21858 -0.35084,0.21858 h -0.35084 l 0.023,-3.08191 0.023,-3.0819 h 0.30601 0.306 l 0.0246,1.07102 c 0.0135,0.58906 0.0579,1.07101 0.0986,1.07101 0.0407,0 0.12516,-0.0616 0.18766,-0.13691 0.37066,-0.44661 1.35052,-0.55899 1.98542,-0.2277 0.20501,0.10698 0.48691,0.35211 0.62645,0.54473 0.50189,0.69284 0.54425,2.08414 0.0905,2.97348 -0.18093,0.35466 -0.69226,0.83772 -1.01772,0.96146 -0.32623,0.12404 -1.00218,0.0965 -1.29604,-0.0527 z m 1.24945,-0.70205 c 0.5727,-0.40114 0.78273,-1.78199 0.39171,-2.57532 -0.33614,-0.68198 -1.01816,-0.89568 -1.59834,-0.50081 -0.48338,0.32898 -0.629,0.60048 -0.67567,1.25974 -0.0545,0.77036 0.0901,1.29691 0.45708,1.66388 0.25585,0.25585 0.34396,0.28943 0.75958,0.28943 0.28523,0 0.54704,-0.0539 0.66564,-0.13692 z m 2.73015,0.6501 c -0.38494,-0.23466 -0.49953,-0.38485 -0.61942,-0.81188 -0.19354,-0.68931 0.19993,-1.39388 0.8998,-1.61124 0.1575,-0.0489 0.64046,-0.13284 1.07323,-0.18651 0.83416,-0.10342 1.00545,-0.20439 1.00545,-0.59262 0,-0.46732 -0.37145,-0.7207 -1.05651,-0.7207 -0.50936,0 -0.75542,0.1346 -0.95258,0.52106 -0.15029,0.29459 -0.22392,0.35324 -0.44347,0.35324 -0.34419,0 -0.40246,-0.17455 -0.2188,-0.65546 0.12533,-0.32817 0.21949,-0.42174 0.6232,-0.61925 0.89534,-0.43806 2.32102,-0.21877 2.63703,0.4056 0.0734,0.14513 0.1084,0.70882 0.10928,1.76219 0.001,1.46391 0.011,1.55399 0.17796,1.64335 0.0972,0.052 0.21519,0.0707 0.26229,0.0416 0.0495,-0.0306 0.0856,0.0736 0.0856,0.24731 0,0.26616 -0.0309,0.30642 -0.27252,0.35474 -0.3341,0.0668 -0.70255,-0.0955 -0.81922,-0.36089 -0.10242,-0.23298 -0.24089,-0.2505 -0.40572,-0.0513 -0.37947,0.45856 -1.53809,0.61453 -2.08561,0.28075 z m 1.74773,-0.64468 c 0.36722,-0.18989 0.52722,-0.47775 0.58688,-1.0558 0.0513,-0.49686 0.0498,-0.50088 -0.15861,-0.44338 -0.11571,0.0319 -0.47127,0.0963 -0.79012,0.14312 -0.93703,0.13754 -1.14124,0.25493 -1.25889,0.72367 -0.0707,0.28166 0.12761,0.64156 0.423,0.76768 0.24802,0.1059 0.86641,0.036 1.19774,-0.13529 z m -19.49754,-1.57339 v -2.22946 h 0.34973 c 0.34139,0 0.34971,0.007 0.34971,0.30601 0,0.1683 0.0133,0.306 0.0295,0.306 0.0162,0 0.19492,-0.15737 0.39711,-0.34972 0.30189,-0.28717 0.42952,-0.34972 0.71367,-0.34972 h 0.34605 v 0.39344 0.39343 h -0.33793 c -0.21031,0 -0.42559,0.069 -0.57004,0.18258 -0.44147,0.34726 -0.49091,0.56177 -0.49091,2.12997 v 1.44693 h -0.39344 -0.39343 z m -3.21055,-3.45348 0.36817,-0.612 h 0.46609 0.46607 l -0.54393,0.612 c -0.46718,0.52566 -0.58488,0.61201 -0.83425,0.61201 h -0.29033 z m -13.11643,-3.29126 c -0.41723,-0.20569 -0.67332,-0.67304 -0.6655,-1.21448 0.0126,-0.87341 0.44483,-1.204 1.8363,-1.40457 0.999,-0.144 1.16741,-0.23425 1.16741,-0.62567 0,-0.46732 -0.37145,-0.72069 -1.05651,-0.72069 -0.52963,0 -0.77705,0.13806 -0.93916,0.52405 -0.13358,0.31804 -0.17498,0.34854 -0.47422,0.34935 -0.2716,6.6e-4 -0.32786,-0.0296 -0.32786,-0.17677 0,-0.33195 0.24271,-0.76023 0.57407,-1.01297 0.31352,-0.23914 0.37516,-0.25196 1.21144,-0.25196 0.75884,0 0.9245,0.027 1.19394,0.19457 0.47601,0.29605 0.51774,0.46954 0.51774,2.15266 0,1.5596 0.0339,1.71826 0.36721,1.71826 0.11504,0 0.15737,0.0676 0.15737,0.25136 0,0.21144 -0.0433,0.26002 -0.27253,0.30587 -0.3341,0.0668 -0.70255,-0.0955 -0.81922,-0.3609 -0.10241,-0.23298 -0.24089,-0.2505 -0.40572,-0.0513 -0.35227,0.42571 -1.49424,0.60447 -2.06476,0.32322 z m 1.76232,-0.71191 c 0.34494,-0.19899 0.57559,-0.65708 0.57575,-1.14353 0,-0.35378 -0.0143,-0.37778 -0.19658,-0.32732 -0.10819,0.0299 -0.4576,0.0928 -0.77646,0.13955 -0.93703,0.13754 -1.14124,0.25493 -1.25889,0.72368 -0.0707,0.28165 0.12762,0.64155 0.423,0.76767 0.26249,0.11208 0.9063,0.0285 1.23318,-0.16005 z m 3.51679,0.72763 c -0.70653,-0.25187 -1.14866,-0.91502 -1.24879,-1.87307 -0.17622,-1.68591 0.90695,-2.975153 2.32139,-2.76304 0.82288,0.1234 1.35156,0.59438 1.46722,1.30712 l 0.0502,0.30959 h -0.34433 c -0.31912,0 -0.35592,-0.0263 -0.50248,-0.35843 -0.40012,-0.9069 -1.7346,-0.73756 -2.07697,0.26356 -0.17509,0.51194 -0.13164,1.56455 0.0817,1.97924 0.21094,0.41004 0.48872,0.56366 1.01922,0.56366 0.46158,0 0.74596,-0.20393 0.96654,-0.69309 0.14872,-0.32978 0.18621,-0.35607 0.50794,-0.35607 0.34133,0 0.34643,0.005 0.29351,0.26927 -0.0296,0.1481 -0.11876,0.40605 -0.19809,0.57323 -0.35048,0.73859 -1.43499,1.09962 -2.33709,0.77803 z m 6.09794,-0.0347 c -0.70128,-0.32724 -1.11026,-1.1091 -1.10768,-2.11757 0.002,-0.76196 0.1224,-1.19766 0.473,-1.71094 0.59978,-0.878103 2.10984,-1.039903 2.96778,-0.318 0.50679,0.42645 0.64966,0.83576 0.64966,1.86123 0,0.85553 -0.0178,0.95055 -0.26229,1.39593 -0.15995,0.29145 -0.41002,0.58128 -0.64093,0.74283 -0.32923,0.23034 -0.46613,0.26814 -1.04916,0.28968 -0.51656,0.0191 -0.75314,-0.0138 -1.03038,-0.14316 z m 1.49411,-0.57378 c 0.41452,-0.17319 0.67456,-0.70846 0.7253,-1.49292 0.0499,-0.77118 -0.0776,-1.24862 -0.4213,-1.5779 -0.24062,-0.23053 -0.32881,-0.25813 -0.82493,-0.25813 -0.46609,0 -0.59147,0.0338 -0.77893,0.20989 -0.53997,0.50727 -0.70383,1.78516 -0.32837,2.56076 0.29378,0.60687 0.96289,0.8363 1.62823,0.5583 z m 7.87103,0.65723 c -0.55967,-0.24767 -0.89824,-0.99658 -0.73214,-1.61946 0.17826,-0.66841 0.61515,-0.90472 2.04359,-1.10536 0.80336,-0.11284 0.91801,-0.17962 0.91801,-0.53466 0,-0.52678 -0.3488,-0.77367 -1.08406,-0.76731 -0.4662,0.004 -0.74767,0.16683 -0.92022,0.53228 -0.11914,0.25231 -0.18373,0.2952 -0.44457,0.2952 -0.29498,0 -0.3044,-0.0102 -0.28163,-0.30601 0.0315,-0.40938 0.25626,-0.7022 0.72138,-0.93987 0.52397,-0.267733 1.52725,-0.276283 2.06168,-0.0176 0.64291,0.31123 0.68208,0.43245 0.73308,2.26889 0.0443,1.59526 0.0476,1.61783 0.24164,1.64539 0.15148,0.0215 0.19672,0.0853 0.19672,0.2772 0,0.2052 -0.0458,0.25932 -0.25918,0.30618 -0.38514,0.0846 -0.75668,-0.13436 -0.93177,-0.54911 -0.006,-0.0139 -0.21712,0.10314 -0.4695,0.26003 -0.37897,0.23558 -0.55977,0.28927 -1.03851,0.30839 -0.31881,0.0128 -0.65835,-0.0117 -0.75452,-0.0542 z m 1.50636,-0.7044 c 0.47785,-0.21692 0.72235,-0.61331 0.72278,-1.1718 0,-0.39903 -0.0119,-0.42213 -0.1964,-0.37146 -0.10819,0.0297 -0.47212,0.0977 -0.80872,0.15099 -0.9768,0.15475 -1.1803,0.31025 -1.1803,0.90185 0,0.60019 0.70218,0.83563 1.46264,0.49042 z m -28.91525,-2.45078 v -3.060053 h 0.52005 0.52005 l 1.18044,1.901603 c 0.64924,1.04588 1.32996,2.13766 1.51269,2.42618 l 0.33225,0.52458 0.0232,-2.44856 0.0232,-2.448563 0.39212,0.0312 0.39211,0.0312 v 3.051243 3.05124 h -0.4752 -0.47521 l -1.51382,-2.42278 -1.51383,-2.422783 -0.0232,2.422783 -0.0232,2.42278 h -0.43577 -0.43577 z m 15.30022,0.83058 v -2.22946 h 0.39343 0.39344 v 2.22946 2.22946 h -0.39344 -0.39343 z m 6.7321,0 v -2.22946 h 0.34972 c 0.33029,0 0.34971,0.0146 0.34971,0.26229 0,0.31002 0.0867,0.33081 0.31432,0.0754 0.39478,-0.44307 1.48509,-0.580033 2.02019,-0.25376 0.5389,0.32858 0.59125,0.54389 0.62258,2.56086 l 0.0282,1.81417 h -0.39976 -0.39977 v -1.62179 c 0,-2.09961 -0.054,-2.22512 -0.95708,-2.22512 -0.29172,0 -0.48842,0.0552 -0.65032,0.18257 -0.44363,0.34896 -0.49091,0.55832 -0.49091,2.17369 v 1.49065 h -0.39344 -0.39343 z m 9.61728,-0.83058 v -3.060053 h 0.39343 0.39344 v 3.060053 3.06004 h -0.39344 -0.39343 z m -16.34938,-2.666633 v -0.39343 h 0.39343 0.39344 v 0.39343 0.39344 h -0.39344 -0.39343 z m 10.77898,-3.11043 c -0.25067,-0.0335 -0.58509,-0.13509 -0.74315,-0.22581 -0.3061,-0.17568 -0.68084,-0.80382 -0.68084,-1.1412 0,-0.17386 0.0441,-0.20005 0.33707,-0.20005 0.3049,0 0.34481,0.027 0.41812,0.28256 0.0483,0.16837 0.20356,0.3658 0.38421,0.48852 0.25675,0.17441 0.38647,0.20084 0.84681,0.17248 0.63401,-0.039 0.98641,-0.28564 0.98641,-0.69027 0,-0.33155 -0.17767,-0.48016 -0.76508,-0.63994 -1.4313,-0.38932 -1.67763,-0.49234 -1.91197,-0.79957 -0.38494,-0.50468 -0.20469,-1.25779 0.41107,-1.71752 0.46554,-0.34757 1.79317,-0.34603 2.26418,0.003 0.30622,0.22669 0.6138,0.70117 0.6138,0.94686 0,0.17965 -0.0418,0.20565 -0.33055,0.20565 -0.28741,0 -0.34354,-0.0344 -0.43013,-0.26382 -0.13205,-0.34985 -0.61771,-0.55567 -1.18302,-0.50135 -0.49522,0.0476 -0.76662,0.26065 -0.76662,0.60184 0,0.32554 0.25535,0.48583 1.11192,0.698 1.41942,0.3516 1.85075,0.7204 1.74703,1.49374 -0.12767,0.95185 -1.0347,1.45745 -2.30926,1.28725 z m -24.54413,-0.12378 c -0.48274,-0.17197 -0.75356,-0.39301 -1.03407,-0.84399 -0.33928,-0.54544 -0.41249,-1.14362 -0.41307,-3.37519 l -6.6e-4,-1.94531 h 0.43186 0.43185 l 0.0272,2.29503 c 0.0261,2.20913 0.0346,2.30697 0.2254,2.61385 0.32339,0.52004 0.57987,0.64239 1.34722,0.64267 0.72631,2.6e-4 0.96501,-0.10734 1.33431,-0.60148 0.16864,-0.22565 0.18307,-0.39158 0.22398,-2.57378 l 0.0437,-2.33258 0.42177,-0.0269 0.42178,-0.0269 -0.0335,2.30009 c -0.0282,1.93801 -0.058,2.36542 -0.18946,2.7151 -0.18605,0.49488 -0.76245,1.03814 -1.25947,1.18705 -0.46296,0.1387 -1.55487,0.12345 -1.97901,-0.0276 z m 16.60044,-0.035 c -0.96347,-0.4376 -1.44408,-1.89627 -1.02756,-3.11867 0.18597,-0.5458 0.90774,-1.29383 1.32988,-1.37826 0.9195,-0.1839 1.83807,0.10435 2.2294,0.69958 0.23958,0.36441 0.39787,0.93539 0.40122,1.4473 l 0.002,0.32593 -1.63931,0.0238 -1.63931,0.0238 0.0249,0.30601 c 0.10512,1.29069 1.6547,1.66802 2.30736,0.56186 0.15454,-0.26195 0.22078,-0.29957 0.52731,-0.29957 0.33838,0 0.34852,0.008 0.29184,0.24043 -0.25717,1.05309 -1.72051,1.6617 -2.80789,1.16782 z m 2.14629,-2.69784 c -0.003,-0.26785 -0.32579,-0.87772 -0.53719,-1.01607 -0.34167,-0.22361 -0.86354,-0.25856 -1.20775,-0.0809 -0.37056,0.19129 -0.70117,0.66308 -0.70117,1.00058 v 0.24936 h 1.22401 c 1.10818,0 1.22383,-0.0145 1.2221,-0.153 z m 11.49018,2.57918 c -0.63902,-0.43032 -0.90925,-1.01046 -0.90925,-1.95202 0,-1.21148 0.50006,-2.14426 1.28916,-2.40469 0.52061,-0.17182 1.19539,-0.0631 1.59335,0.2567 l 0.34714,0.27897 0.0245,-1.11674 0.0245,-1.11674 0.32897,-0.0272 0.32897,-0.0272 -0.023,3.13096 -0.023,3.13096 h -0.30515 c -0.26706,0 -0.3107,-0.0312 -0.34972,-0.25008 l -0.0446,-0.25008 -0.17308,0.19172 c -0.25138,0.27845 -0.70099,0.43958 -1.22659,0.43958 -0.37448,0 -0.53899,-0.053 -0.88226,-0.28414 z m 1.62317,-0.48888 c 0.42348,-0.22711 0.64947,-0.70985 0.68863,-1.471 0.0399,-0.77541 -0.0832,-1.16677 -0.4754,-1.51109 -0.59688,-0.52407 -1.51804,-0.27797 -1.83953,0.49146 -0.19509,0.46693 -0.15434,1.49587 0.0775,1.95554 0.32169,0.63794 0.9514,0.8555 1.54883,0.53509 z m 2.99672,0.59864 c -0.38803,-0.23658 -0.63234,-0.665 -0.63274,-1.10951 -0.001,-0.97699 0.44272,-1.30504 2.04664,-1.51355 0.38049,-0.0495 0.74441,-0.1336 0.80872,-0.18697 0.0643,-0.0534 0.11693,-0.2435 0.11693,-0.4225 0,-0.49886 -0.2327,-0.65787 -0.96328,-0.65826 -0.50707,-2.6e-4 -0.62887,0.0306 -0.8171,0.20727 -0.12166,0.11417 -0.23313,0.29121 -0.24771,0.39343 -0.022,0.15413 -0.0862,0.18586 -0.37623,0.18586 -0.33676,0 -0.34865,-0.01 -0.32064,-0.26229 0.0837,-0.75473 0.71914,-1.18138 1.75512,-1.17839 0.77327,0.002 1.30599,0.20002 1.55317,0.57666 0.13555,0.20654 0.16645,0.48975 0.20353,1.86521 l 0.0437,1.6217 0.24043,0.0277 c 0.18958,0.0218 0.24043,0.0731 0.24043,0.24259 0,0.44891 -0.84034,0.48667 -1.11308,0.05 -0.08,-0.12806 -0.15711,-0.24899 -0.17136,-0.26873 -0.0143,-0.0197 -0.095,0.0249 -0.17947,0.0991 -0.5779,0.5081 -1.63417,0.66781 -2.18708,0.3307 z m 1.66948,-0.62407 c 0.48661,-0.23642 0.67007,-0.5447 0.67007,-1.12599 0,-0.38076 -0.0228,-0.44614 -0.13968,-0.40127 -0.0768,0.0295 -0.42108,0.0948 -0.76501,0.14518 -1.0499,0.15375 -1.28106,0.30652 -1.28106,0.84663 0,0.65182 0.73888,0.91285 1.51568,0.53545 z m 3.45066,0.62005 c -0.6818,-0.36008 -1.05505,-1.11579 -1.05693,-2.13995 -0.001,-0.75379 0.1711,-1.28889 0.59435,-1.8438 0.46001,-0.60311 1.63762,-0.74289 2.25991,-0.26824 0.16856,0.12857 0.32756,0.23376 0.35334,0.23376 0.0258,0 0.0579,-0.48195 0.0714,-1.07101 l 0.0245,-1.07102 0.32898,-0.0272 0.32897,-0.0272 -0.023,3.13096 -0.023,3.13096 h -0.30601 c -0.26883,0 -0.30936,-0.0292 -0.33366,-0.24043 -0.0323,-0.28034 -0.10877,-0.30463 -0.24953,-0.0792 -0.27591,0.44181 -1.36377,0.59227 -1.96944,0.2724 z m 1.47276,-0.57678 c 0.39361,-0.18678 0.65339,-0.70074 0.70988,-1.40445 0.0904,-1.12581 -0.37284,-1.86214 -1.17145,-1.86214 -0.83896,0 -1.25632,0.55487 -1.25632,1.67025 0,0.81629 0.23787,1.3558 0.69944,1.58638 0.38148,0.19057 0.63266,0.19303 1.01845,0.01 z m -36.71482,0.61361 c -0.0343,-0.0343 -0.0624,-1.05913 -0.0624,-2.27732 v -2.21489 h 0.34972 c 0.34046,0 0.34971,0.008 0.34971,0.30183 v 0.30183 l 0.24044,-0.22599 c 0.73962,-0.6952 2.04924,-0.60327 2.52148,0.17701 0.1503,0.24834 0.16698,0.45936 0.16698,2.11193 v 1.83603 l -0.37157,0.0269 -0.37158,0.0269 v -1.61679 c 0,-2.1254 -0.0797,-2.32761 -0.91755,-2.32761 -0.37671,0 -0.52072,0.0444 -0.73888,0.22801 -0.44678,0.37594 -0.47733,0.49963 -0.52674,2.1326 l -0.0463,1.53002 -0.26543,0.026 c -0.14599,0.0143 -0.29353,-0.002 -0.32786,-0.0364 z m 4.80864,0 c -0.0343,-0.0343 -0.0624,-1.05913 -0.0624,-2.27732 v -2.21489 h 0.35119 0.3512 l -0.0233,2.25132 -0.0233,2.25132 -0.26543,0.026 c -0.14599,0.0143 -0.29352,-0.002 -0.32786,-0.0364 z m 3.03534,-0.0128 c -0.0514,-0.0353 -0.20299,-0.35931 -0.3369,-0.71995 -0.60422,-1.62727 -1.362,-3.7023 -1.362,-3.72954 0,-0.0165 0.19491,-0.0299 0.43314,-0.0299 h 0.43313 l 0.58129,1.79791 c 0.31971,0.98885 0.59772,1.78147 0.61782,1.76138 0.0201,-0.0201 0.30661,-0.81931 0.63673,-1.77605 l 0.60021,-1.73952 0.40344,-0.0267 c 0.2219,-0.0147 0.40345,0.002 0.40345,0.0376 0,0.15775 -1.61715,4.3674 -1.6998,4.42478 -0.0509,0.0353 -0.21055,0.0642 -0.3548,0.0642 -0.14426,0 -0.30433,-0.0289 -0.35571,-0.0642 z m 7.98084,0.0128 c -0.0343,-0.0344 -0.0624,-1.05915 -0.0624,-2.27734 v -2.21489 h 0.34972 c 0.34139,0 0.34971,0.007 0.34971,0.30601 0,0.31746 0.11297,0.40108 0.23858,0.17661 0.14409,-0.25745 0.6698,-0.57005 0.95872,-0.57005 0.28425,0 0.28901,0.006 0.28901,0.39344 0,0.38532 -0.006,0.39346 -0.28415,0.39472 -0.3653,0.002 -0.65765,0.15438 -0.88772,0.46374 -0.16524,0.22219 -0.18759,0.39871 -0.227,1.79232 l -0.0437,1.54585 -0.30912,0.026 c -0.17003,0.0143 -0.33724,-0.002 -0.37158,-0.0364 z m 7.16924,0 c -0.0343,-0.0344 -0.0624,-1.05915 -0.0624,-2.27734 v -2.21489 h 0.39492 0.39491 l -0.0233,2.25132 -0.0233,2.25132 -0.30913,0.026 c -0.17002,0.0143 -0.33723,-0.002 -0.37158,-0.0364 z m -18.24785,-5.75996 v -0.39343 h 0.34972 0.34971 v 0.39343 0.39343 h -0.34971 -0.34972 z m 18.1854,0 v -0.39343 h 0.39344 0.39343 v 0.39343 0.39343 h -0.39343 -0.39344 z"
       id="path836" />
  </g>
</svg>
